<svg width="15" height="12" viewBox="0 0 15 12" fill="none" xmlns="http://www.w3.org/2000/svg">
<path d="M0.750452 11.2303H14.2508C14.3875 11.2298 14.5215 11.1921 14.6384 11.1212C14.7552 11.0503 14.8505 10.9489 14.914 10.8278C14.9775 10.7068 15.0068 10.5707 14.9987 10.4343C14.9906 10.2978 14.9454 10.1662 14.8681 10.0535L8.11791 0.303196C7.83815 -0.101065 7.16463 -0.101065 6.88413 0.303196L0.133934 10.0535C0.0558005 10.1659 0.0099812 10.2977 0.00145423 10.4343C-0.00707273 10.571 0.0220188 10.7074 0.0855682 10.8287C0.149118 10.95 0.244694 11.0516 0.361914 11.1224C0.479133 11.1932 0.613513 11.2305 0.750452 11.2303Z" fill="white"/>
</svg>
