<svg width="20" height="20" viewBox="0 0 20 20" fill="none" xmlns="http://www.w3.org/2000/svg">
<path d="M10 0C8.02219 0 6.08879 0.58649 4.4443 1.6853C2.79981 2.78412 1.51809 4.3459 0.761209 6.17316C0.00433286 8.00043 -0.1937 10.0111 0.192152 11.9509C0.578004 13.8907 1.53041 15.6725 2.92894 17.0711C4.32746 18.4696 6.10929 19.422 8.0491 19.8078C9.98891 20.1937 11.9996 19.9957 13.8268 19.2388C15.6541 18.4819 17.2159 17.2002 18.3147 15.5557C19.4135 13.9112 20 11.9778 20 10C20 7.34783 18.9464 4.8043 17.0711 2.92893C15.1957 1.05357 12.6522 0 10 0V0ZM9.96 5.02H10C10.1179 5.02 10.2346 5.04332 10.3434 5.08863C10.4522 5.13394 10.551 5.20034 10.6341 5.284C10.7171 5.36766 10.7828 5.46693 10.8273 5.57609C10.8718 5.68524 10.8942 5.80213 10.8933 5.92V5.96L10.6667 10.7733C10.6548 10.9419 10.5794 11.0997 10.4556 11.2148C10.3319 11.33 10.169 11.3937 10 11.3933C9.83099 11.3937 9.66812 11.33 9.54436 11.2148C9.42059 11.0997 9.34517 10.9419 9.33334 10.7733L9.1 5.95333C9.09097 5.7157 9.17635 5.48416 9.33749 5.30928C9.49863 5.1344 9.72243 5.0304 9.96 5.02V5.02ZM10 14.9467C9.79827 14.9467 9.60106 14.8868 9.43332 14.7748C9.26558 14.6627 9.13485 14.5034 9.05764 14.317C8.98044 14.1306 8.96024 13.9255 8.9996 13.7277C9.03896 13.5298 9.1361 13.3481 9.27875 13.2054C9.4214 13.0628 9.60315 12.9656 9.80101 12.9263C9.99887 12.8869 10.204 12.9071 10.3903 12.9843C10.5767 13.0615 10.736 13.1922 10.8481 13.36C10.9602 13.5277 11.02 13.7249 11.02 13.9267C11.0183 14.1966 10.9102 14.4551 10.7193 14.646C10.5284 14.8369 10.27 14.9449 10 14.9467Z" fill="white"/>
</svg>
