<svg width="15" height="11" viewBox="0 0 15 11" fill="none" xmlns="http://www.w3.org/2000/svg">
<path d="M15 9.25926V1.32275C15 0.590829 14.4092 0 13.6772 0H1.32275C0.590829 0 0 0.590829 0 1.32275V9.25926C0 9.99119 0.590829 10.582 1.32275 10.582H13.6772C14.4092 10.582 15 9.99119 15 9.25926ZM13.8448 1.22575C14.1358 1.51676 13.9771 1.81658 13.8183 1.96649L10.2381 5.24692L13.6772 8.82717C13.7831 8.95062 13.8536 9.14463 13.7302 9.2769C13.6155 9.41799 13.351 9.40918 13.2363 9.32099L9.38271 6.03175L7.49559 7.75133L5.61729 6.03175L1.76367 9.32099C1.64903 9.40918 1.38448 9.41799 1.26984 9.2769C1.14639 9.14463 1.21693 8.95062 1.32275 8.82717L4.76191 5.24692L1.18166 1.96649C1.02293 1.81658 0.864198 1.51676 1.1552 1.22575C1.44621 0.934745 1.74603 1.07584 1.99295 1.28748L7.49559 5.73193L13.0071 1.28748C13.254 1.07584 13.5538 0.934745 13.8448 1.22575Z" fill="black"/>
</svg>
