<svg width="44" height="44" viewBox="0 0 44 44" fill="none" xmlns="http://www.w3.org/2000/svg">
<path d="M22 0C26.3512 0 30.6047 1.29028 34.2225 3.70767C37.8404 6.12506 40.6602 9.56099 42.3253 13.581C43.9905 17.6009 44.4261 22.0244 43.5773 26.292C42.7284 30.5596 40.6331 34.4796 37.5564 37.5564C34.4796 40.6331 30.5596 42.7284 26.292 43.5773C22.0244 44.4261 17.6009 43.9905 13.581 42.3253C9.56099 40.6602 6.12506 37.8404 3.70767 34.2225C1.29028 30.6047 0 26.3512 0 22C0.015835 16.1701 2.33877 10.5835 6.46114 6.46114C10.5835 2.33877 16.1701 0.015835 22 0V0Z" fill="url(#paint0_linear_704_131)"/>
<defs>
<linearGradient id="paint0_linear_704_131" x1="13.96" y1="50.4256" x2="35.88" y2="12.4492" gradientUnits="userSpaceOnUse">
<stop stop-color="#FDBF53"/>
<stop offset="0.33" stop-color="#F1203E"/>
<stop offset="0.65" stop-color="#B629A7"/>
<stop offset="1" stop-color="#5342D5"/>
</linearGradient>
</defs>
</svg>
