<svg width="745" height="109" viewBox="0 0 745 109" fill="none" xmlns="http://www.w3.org/2000/svg">
<path d="M81.1372 2.78369V1.78369H80.5459L80.261 2.30177L81.1372 2.78369ZM91.7456 2.78369L92.7102 2.51992L92.5089 1.78369H91.7456V2.78369ZM101.98 40.2119L102.259 41.1723L103.205 40.8978L102.945 39.9481L101.98 40.2119ZM88.085 44.2461L87.1976 44.7071L87.5758 45.4352L88.3638 45.2064L88.085 44.2461ZM75.0112 25.2705L75.6862 24.5326L75.6816 24.5285L75.0112 25.2705ZM42.9619 21.6099L42.4257 20.7658L42.4212 20.7687L42.9619 21.6099ZM32.9512 33.4883L32.0483 33.0583L32.045 33.0654L32.9512 33.4883ZM37.7324 79.5078L36.9244 80.0969L36.9268 80.1003L37.7324 79.5078ZM76.8042 86.082L76.2804 85.2301L76.277 85.2323L76.8042 86.082ZM94.2109 69.4224L94.8068 68.6193L93.9812 68.0067L93.3917 68.8489L94.2109 69.4224ZM105.791 78.0137L106.597 78.6049L107.185 77.803L106.386 77.2106L105.791 78.0137ZM85.1714 99.4546L85.715 100.294L85.7152 100.294L85.1714 99.4546ZM26.377 101.771L25.864 102.629L25.8704 102.633L26.377 101.771ZM7.17725 27.0635L6.30609 26.5725L6.3051 26.5742L7.17725 27.0635ZM26.0034 7.86377L25.5049 6.99686L25.5026 6.99822L26.0034 7.86377ZM78.6719 7.26611L78.1833 8.13862L79.0625 8.63097L79.5481 7.74803L78.6719 7.26611ZM81.1372 3.78369H91.7456V1.78369H81.1372V3.78369ZM90.781 3.04746L101.016 40.4757L102.945 39.9481L92.7102 2.51992L90.781 3.04746ZM101.702 39.2516L87.8062 43.2857L88.3638 45.2064L102.259 41.1723L101.702 39.2516ZM88.9723 43.7851C84.3231 34.8365 79.9004 28.3871 75.6861 24.5326L74.3363 26.0084C78.29 29.6246 82.5832 35.8256 87.1976 44.7071L88.9723 43.7851ZM75.6816 24.5285C69.8505 19.26 63.4685 16.5757 56.5586 16.5757V18.5757C62.8968 18.5757 68.8165 21.0212 74.3408 26.0125L75.6816 24.5285ZM56.5586 16.5757C51.5301 16.5757 46.8129 17.9786 42.4257 20.7658L43.4981 22.4539C47.5777 19.8622 51.925 18.5757 56.5586 18.5757V16.5757ZM42.4212 20.7687C38.0566 23.5745 34.6052 27.6889 32.0483 33.0583L33.854 33.9182C36.2776 28.8287 39.5 25.0242 43.5027 22.451L42.4212 20.7687ZM32.045 33.0654C29.5308 38.4528 28.2905 44.7287 28.2905 51.8662H30.2905C30.2905 44.9588 31.4906 38.9827 33.8574 33.9112L32.045 33.0654ZM28.2905 51.8662C28.2905 62.7592 31.1568 72.1857 36.9244 80.0969L38.5405 78.9187C33.0522 71.3905 30.2905 62.3893 30.2905 51.8662H28.2905ZM36.9268 80.1003C42.7829 88.0625 50.4963 92.0874 59.9951 92.0874V90.0874C51.1658 90.0874 44.0374 86.3926 38.538 78.9153L36.9268 80.1003ZM59.9951 92.0874C66.0246 92.0874 71.8083 90.3581 77.3314 86.9318L76.277 85.2323C71.0423 88.4798 65.62 90.0874 59.9951 90.0874V92.0874ZM77.3279 86.9339C84.177 82.723 90.0771 77.0716 95.0302 69.9958L93.3917 68.8489C88.5831 75.7184 82.8787 81.1735 76.2805 85.2302L77.3279 86.9339ZM93.6151 70.2255L105.195 78.8168L106.386 77.2106L94.8068 68.6193L93.6151 70.2255ZM104.984 77.4225C97.4915 87.6441 90.7035 94.6782 84.6276 98.6154L85.7152 100.294C92.0904 96.1627 99.0486 88.9028 106.597 78.6049L104.984 77.4225ZM84.6278 98.6153C75.1826 104.733 64.6644 107.793 53.0474 107.793V109.793C65.0377 109.793 75.9356 106.628 85.715 100.294L84.6278 98.6153ZM53.0474 107.793C43.4025 107.793 34.6891 105.494 26.8835 100.908L25.8704 102.633C34.0023 107.41 43.0691 109.793 53.0474 109.793V107.793ZM26.8899 100.912C19.1292 96.2752 12.9249 89.8073 8.27431 81.4853L6.52842 82.461C11.3408 91.0725 17.7868 97.803 25.864 102.629L26.8899 100.912ZM8.27431 81.4853C3.62893 73.1725 1.3042 64.1025 1.3042 54.2568H-0.695801C-0.695801 64.4326 1.71092 73.8402 6.52842 82.461L8.27431 81.4853ZM1.3042 54.2568C1.3042 44.456 3.55653 35.5617 8.04939 27.5527L6.3051 26.5742C1.6339 34.9012 -0.695801 44.1358 -0.695801 54.2568H1.3042ZM8.0484 27.5545C12.5953 19.4873 18.7449 13.219 26.5042 8.72932L25.5026 6.99822C17.424 11.6726 11.0228 18.2041 6.30609 26.5725L8.0484 27.5545ZM26.5019 8.73068C34.3095 4.24128 43.0011 1.99072 52.5991 1.99072V-0.00927734C42.6737 -0.00927734 33.6348 2.32219 25.5049 6.99686L26.5019 8.73068ZM52.5991 1.99072C62.3664 1.99072 70.8839 4.05098 78.1833 8.13862L79.1605 6.39361C71.5184 2.11406 62.6541 -0.00927734 52.5991 -0.00927734V1.99072ZM79.5481 7.74803L82.0134 3.26561L80.261 2.30177L77.7957 6.78419L79.5481 7.74803ZM113.485 2.78369V1.78369H112.485V2.78369H113.485ZM164.286 2.78369H165.286V1.78369H164.286V2.78369ZM164.286 17.2021V18.2021H165.286V17.2021H164.286ZM154.275 17.9492L154.743 18.833L154.752 18.8283L154.761 18.8234L154.275 17.9492ZM152.333 20.1904L151.414 19.7965L151.409 19.8077L151.405 19.819L152.333 20.1904ZM154.051 91.6851L154.547 90.8168L154.513 90.7971L154.477 90.7802L154.051 91.6851ZM164.286 92.5815H165.286V91.5815H164.286V92.5815ZM164.286 107V108H165.286V107H164.286ZM113.485 107H112.485V108H113.485V107ZM113.485 92.5815V91.5815H112.485V92.5815H113.485ZM123.347 91.9839L123.753 92.8977L123.774 92.8885L123.794 92.8783L123.347 91.9839ZM125.289 89.9668L124.385 89.5387L124.38 89.5496L124.375 89.5607L125.289 89.9668ZM125.289 20.1904L124.355 20.5464L124.365 20.5739L124.377 20.6008L125.289 20.1904ZM123.197 17.7998L122.701 18.668L122.708 18.6721L122.715 18.676L123.197 17.7998ZM113.485 17.2021H112.485V18.2021H113.485V17.2021ZM113.485 3.78369H164.286V1.78369H113.485V3.78369ZM163.286 2.78369V17.2021H165.286V2.78369H163.286ZM164.286 16.2021H159.654V18.2021H164.286V16.2021ZM159.654 16.2021C158.283 16.2021 157.113 16.2653 156.155 16.3984C155.215 16.529 154.399 16.7368 153.79 17.0751L154.761 18.8234C155.049 18.6636 155.577 18.4979 156.43 18.3794C157.265 18.2635 158.336 18.2021 159.654 18.2021V16.2021ZM153.808 17.0654C152.723 17.6398 151.935 18.5816 151.414 19.7965L153.252 20.5843C153.628 19.7074 154.135 19.1551 154.743 18.833L153.808 17.0654ZM151.405 19.819C151.153 20.4468 150.993 21.2911 150.89 22.2923C150.786 23.3092 150.735 24.5536 150.735 26.0176H152.735C152.735 24.5928 152.785 23.4217 152.88 22.4963C152.976 21.5551 153.114 20.9301 153.261 20.5618L151.405 19.819ZM150.735 26.0176V83.6914H152.735V26.0176H150.735ZM150.735 83.6914C150.735 85.2752 150.779 86.5954 150.87 87.6436C150.958 88.6663 151.097 89.5157 151.326 90.1051L153.19 89.3802C153.071 89.0731 152.948 88.4657 152.862 87.4714C152.779 86.5025 152.735 85.2453 152.735 83.6914H150.735ZM151.326 90.1051C151.765 91.2332 152.54 92.0789 153.625 92.5899L154.477 90.7802C153.87 90.4943 153.449 90.0451 153.19 89.3802L151.326 90.1051ZM153.555 92.5533C154.826 93.2795 156.604 93.5815 158.758 93.5815V91.5815C156.728 91.5815 155.368 91.2859 154.547 90.8168L153.555 92.5533ZM158.758 93.5815H164.286V91.5815H158.758V93.5815ZM163.286 92.5815V107H165.286V92.5815H163.286ZM164.286 106H113.485V108H164.286V106ZM114.485 107V92.5815H112.485V107H114.485ZM113.485 93.5815H117.594V91.5815H113.485V93.5815ZM117.594 93.5815C119.082 93.5815 120.334 93.5313 121.34 93.4268C122.322 93.3247 123.155 93.1633 123.753 92.8977L122.941 91.0701C122.642 91.2029 122.068 91.3404 121.133 91.4375C120.221 91.5322 119.045 91.5815 117.594 91.5815V93.5815ZM123.794 92.8783C124.893 92.3288 125.708 91.4863 126.203 90.3729L124.375 89.5607C124.073 90.2402 123.593 90.7425 122.899 91.0895L123.794 92.8783ZM126.193 90.3949C126.485 89.7773 126.669 88.9547 126.786 87.9957C126.905 87.0203 126.961 85.8314 126.961 84.4385H124.961C124.961 85.7848 124.906 86.8869 124.801 87.7543C124.693 88.638 124.541 89.21 124.385 89.5387L126.193 90.3949ZM126.961 84.4385V26.5405H124.961V84.4385H126.961ZM126.961 26.5405C126.961 24.9028 126.905 23.526 126.788 22.4197C126.673 21.3361 126.493 20.4279 126.201 19.7801L124.377 20.6008C124.534 20.949 124.69 21.5972 124.799 22.6303C124.906 23.6407 124.961 24.941 124.961 26.5405H126.961ZM126.224 19.8344C125.739 18.5632 124.879 17.5837 123.679 16.9236L122.715 18.676C123.507 19.1116 124.042 19.7259 124.355 20.5464L126.224 19.8344ZM123.693 16.9316C123.157 16.6251 122.385 16.46 121.521 16.3584C120.62 16.2524 119.481 16.2021 118.117 16.2021V18.2021C119.442 18.2021 120.495 18.2515 121.287 18.3447C122.117 18.4423 122.54 18.576 122.701 18.668L123.693 16.9316ZM118.117 16.2021H113.485V18.2021H118.117V16.2021ZM114.485 17.2021V2.78369H112.485V17.2021H114.485ZM175.343 2.78369V1.78369H174.343V2.78369H175.343ZM217.702 2.78369L218.595 2.33472L218.318 1.78369H217.702V2.78369ZM248.257 63.5952L247.363 64.0442L249.257 63.5952H248.257ZM247.734 20.4146L246.811 20.7992L246.814 20.8073L246.818 20.8154L247.734 20.4146ZM245.717 17.9492L245.21 18.8112L245.229 18.8225L245.249 18.833L245.717 17.9492ZM235.706 17.2021H234.706V18.2021H235.706V17.2021ZM235.706 2.78369V1.78369H234.706V2.78369H235.706ZM278.737 2.78369H279.737V1.78369H278.737V2.78369ZM278.737 17.2021V18.2021H279.737V17.2021H278.737ZM268.801 18.0239L268.337 17.1381L268.328 17.1428L268.319 17.1477L268.801 18.0239ZM266.112 107V108H267.112V107H266.112ZM244.671 107L243.778 107.45L244.055 108H244.671V107ZM205.973 30.2012L206.866 29.7512L204.973 30.2012H205.973ZM206.496 89.8174L205.571 90.1981L205.58 90.2209L205.591 90.2432L206.496 89.8174ZM208.513 91.8345L208.047 92.7194L208.056 92.7242L208.065 92.7289L208.513 91.8345ZM218.598 92.5815H219.598V91.5815H218.598V92.5815ZM218.598 107V108H219.598V107H218.598ZM175.343 107H174.343V108H175.343V107ZM175.343 92.5815V91.5815H174.343V92.5815H175.343ZM184.905 91.9839L185.311 92.8977L185.322 92.8928L185.333 92.8876L184.905 91.9839ZM187.221 20.2651L186.311 20.6789L186.315 20.687L186.318 20.6951L187.221 20.2651ZM185.204 17.9492L184.697 18.8112L184.716 18.8225L184.736 18.833L185.204 17.9492ZM175.343 17.2021H174.343V18.2021H175.343V17.2021ZM175.343 3.78369H217.702V1.78369H175.343V3.78369ZM216.808 3.23266L247.363 64.0442L249.15 63.1462L218.595 2.33472L216.808 3.23266ZM249.257 63.5952V26.3911H247.257V63.5952H249.257ZM249.257 26.3911C249.257 24.7831 249.213 23.456 249.122 22.4192C249.035 21.4187 248.896 20.5758 248.65 20.0137L246.818 20.8154C246.92 21.0502 247.043 21.6018 247.13 22.5935C247.213 23.5489 247.257 24.8116 247.257 26.3911H249.257ZM248.657 20.0299C248.101 18.6958 247.298 17.6551 246.185 17.0654L245.249 18.833C245.828 19.1398 246.371 19.7427 246.811 20.7992L248.657 20.0299ZM246.224 17.0873C245.64 16.7439 244.872 16.5324 243.999 16.4002C243.11 16.2656 242.036 16.2021 240.786 16.2021V18.2021C241.977 18.2021 242.944 18.2632 243.699 18.3776C244.47 18.4944 244.947 18.6565 245.21 18.8112L246.224 17.0873ZM240.786 16.2021H235.706V18.2021H240.786V16.2021ZM236.706 17.2021V2.78369H234.706V17.2021H236.706ZM235.706 3.78369H278.737V1.78369H235.706V3.78369ZM277.737 2.78369V17.2021H279.737V2.78369H277.737ZM278.737 16.2021H273.956V18.2021H278.737V16.2021ZM273.956 16.2021C271.537 16.2021 269.61 16.4713 268.337 17.1381L269.265 18.9098C270.084 18.4809 271.594 18.2021 273.956 18.2021V16.2021ZM268.319 17.1477C267.148 17.7918 266.283 18.7008 265.788 19.8771L267.631 20.6532C267.933 19.9369 268.462 19.3518 269.283 18.9001L268.319 17.1477ZM265.788 19.8771C265.528 20.4952 265.368 21.3671 265.266 22.4092C265.162 23.4746 265.112 24.8049 265.112 26.3911H267.112C267.112 24.8397 267.161 23.5801 267.257 22.6034C267.354 21.6036 267.493 20.9813 267.631 20.6532L265.788 19.8771ZM265.112 26.3911V107H267.112V26.3911H265.112ZM266.112 106H244.671V108H266.112V106ZM245.564 106.55L206.866 29.7512L205.08 30.6512L243.778 107.45L245.564 106.55ZM204.973 30.2012V83.9155H206.973V30.2012H204.973ZM204.973 83.9155C204.973 85.4745 205.017 86.7707 205.107 87.7952C205.196 88.7908 205.335 89.6247 205.571 90.1981L207.42 89.4366C207.308 89.1634 207.186 88.5903 207.099 87.6186C207.016 86.6759 206.973 85.4444 206.973 83.9155H204.973ZM205.591 90.2432C206.095 91.314 206.937 92.1352 208.047 92.7194L208.978 90.9496C208.196 90.5377 207.693 90.0141 207.4 89.3916L205.591 90.2432ZM208.065 92.7289C209.286 93.3393 211.186 93.5815 213.593 93.5815V91.5815C211.219 91.5815 209.731 91.3257 208.96 90.94L208.065 92.7289ZM213.593 93.5815H218.598V91.5815H213.593V93.5815ZM217.598 92.5815V107H219.598V92.5815H217.598ZM218.598 106H175.343V108H218.598V106ZM176.343 107V92.5815H174.343V107H176.343ZM175.343 93.5815H179.825V91.5815H175.343V93.5815ZM179.825 93.5815C181.093 93.5815 182.181 93.531 183.08 93.4253C183.964 93.3212 184.728 93.1571 185.311 92.8977L184.499 91.0701C184.186 91.2091 183.655 91.3438 182.846 91.439C182.051 91.5325 181.047 91.5815 179.825 91.5815V93.5815ZM185.333 92.8876C186.501 92.3347 187.397 91.4192 188.032 90.2067L186.261 89.2787C185.8 90.1579 185.202 90.7366 184.477 91.0801L185.333 92.8876ZM188.032 90.2067C188.693 88.946 188.968 87.1827 188.968 85.0361H186.968C186.968 87.0732 186.696 88.4475 186.261 89.2787L188.032 90.2067ZM188.968 85.0361V25.2705H186.968V85.0361H188.968ZM188.968 25.2705C188.968 22.9484 188.722 21.0917 188.124 19.8352L186.318 20.6951C186.716 21.5303 186.968 23.0105 186.968 25.2705H188.968ZM188.132 19.8513C187.566 18.6068 186.76 17.6412 185.672 17.0654L184.736 18.833C185.342 19.1537 185.88 19.732 186.311 20.6789L188.132 19.8513ZM185.711 17.0873C184.62 16.4453 182.968 16.2021 180.946 16.2021V18.2021C182.908 18.2021 184.095 18.4571 184.697 18.8112L185.711 17.0873ZM180.946 16.2021H175.343V18.2021H180.946V16.2021ZM176.343 17.2021V2.78369H174.343V17.2021H176.343ZM288.599 2.78369V1.78369H287.599V2.78369H288.599ZM375.558 2.78369L376.498 2.44452L376.26 1.78369H375.558V2.78369ZM387.436 35.7295L387.774 36.6706L388.716 36.3322L388.377 35.3903L387.436 35.7295ZM373.914 40.5854L372.994 40.9773L373.364 41.8456L374.252 41.5266L373.914 40.5854ZM365.846 27.5864L365.111 28.2652L365.117 28.2711L365.846 27.5864ZM355.686 21.0869L355.401 22.0455L355.408 22.0477L355.416 22.0499L355.686 21.0869ZM326.849 19.4434V18.4434H325.849V19.4434H326.849ZM326.849 45.4414H325.849V46.4414H326.849V45.4414ZM339.997 44.6196L340.374 45.5457L340.383 45.5423L340.391 45.5388L339.997 44.6196ZM342.985 41.9302L343.88 42.3774L343.883 42.3702L343.887 42.3629L342.985 41.9302ZM343.882 30.6494V29.6494H342.882V30.6494H343.882ZM357.18 30.6494H358.18V29.6494H357.18V30.6494ZM357.18 74.7266V75.7266H358.18V74.7266H357.18ZM343.882 74.7266H342.882V75.7266H343.882V74.7266ZM342.761 63.5952L341.867 64.0424L341.873 64.055L341.88 64.0674L342.761 63.5952ZM326.849 60.0093V59.0093H325.849V60.0093H326.849ZM328.642 89.8174L328.248 90.7365L328.259 90.7413L328.27 90.7459L328.642 89.8174ZM358.599 87.5015L358.979 88.4264L358.988 88.4227L358.599 87.5015ZM370.552 78.4619L369.789 77.8164L369.788 77.8172L370.552 78.4619ZM378.695 63.5952L379.021 62.6497L378.063 62.3201L377.746 63.2815L378.695 63.5952ZM392.367 68.3018L393.31 68.6349L393.645 67.6844L392.692 67.3562L392.367 68.3018ZM378.695 107V108H379.403L379.638 107.333L378.695 107ZM288.599 107H287.599V108H288.599V107ZM288.599 92.5815V91.5815H287.599V92.5815H288.599ZM300.776 89.2197L301.704 89.5911L301.715 89.5638L301.725 89.536L300.776 89.2197ZM300.477 20.041L299.555 20.4291L299.564 20.4493L299.573 20.4691L300.477 20.041ZM298.535 17.9492L298.049 18.8234L298.068 18.8339L298.087 18.8436L298.535 17.9492ZM288.599 17.2021H287.599V18.2021H288.599V17.2021ZM288.599 3.78369H375.558V1.78369H288.599V3.78369ZM374.617 3.12286L386.495 36.0687L388.377 35.3903L376.498 2.44452L374.617 3.12286ZM387.098 34.7883L373.576 39.6443L374.252 41.5266L387.774 36.6706L387.098 34.7883ZM374.834 40.1936C372.51 34.737 369.763 30.2956 366.575 26.9018L365.117 28.2711C368.104 31.4514 370.736 35.6761 372.994 40.9773L374.834 40.1936ZM366.58 26.9077C363.436 23.506 359.895 21.227 355.955 20.124L355.416 22.0499C358.947 23.0386 362.179 25.0927 365.111 28.2652L366.58 26.9077ZM355.971 20.1284C352.171 18.9987 347.763 18.4434 342.761 18.4434V20.4434C347.621 20.4434 351.829 20.9837 355.401 22.0455L355.971 20.1284ZM342.761 18.4434H326.849V20.4434H342.761V18.4434ZM325.849 19.4434V45.4414H327.849V19.4434H325.849ZM326.849 46.4414H332.078V44.4414H326.849V46.4414ZM332.078 46.4414C334.065 46.4414 335.746 46.3724 337.112 46.2306C338.462 46.0905 339.57 45.8735 340.374 45.5457L339.62 43.6935C339.079 43.9136 338.195 44.1075 336.906 44.2413C335.632 44.3735 334.026 44.4414 332.078 44.4414V46.4414ZM340.391 45.5388C341.972 44.8613 343.162 43.8128 343.88 42.3774L342.091 41.483C341.613 42.4382 340.812 43.1826 339.603 43.7005L340.391 45.5388ZM343.887 42.3629C344.256 41.594 344.496 40.5453 344.65 39.2876C344.806 38.0129 344.882 36.4501 344.882 34.6089H342.882C342.882 36.4034 342.808 37.8787 342.665 39.0445C342.52 40.2271 342.312 41.0212 342.084 41.4974L343.887 42.3629ZM344.882 34.6089V30.6494H342.882V34.6089H344.882ZM343.882 31.6494H357.18V29.6494H343.882V31.6494ZM356.18 30.6494V74.7266H358.18V30.6494H356.18ZM357.18 73.7266H343.882V75.7266H357.18V73.7266ZM344.882 74.7266V70.2441H342.882V74.7266H344.882ZM344.882 70.2441C344.882 67.1667 344.511 64.7433 343.643 63.123L341.88 64.0674C342.506 65.2362 342.882 67.2454 342.882 70.2441H344.882ZM343.656 63.148C342.868 61.5722 341.728 60.4314 340.219 59.8279L339.476 61.6848C340.458 62.0773 341.26 62.8291 341.867 64.0424L343.656 63.148ZM340.219 59.8279C339.454 59.5217 338.329 59.3261 336.93 59.2001C335.507 59.0719 333.713 59.0093 331.555 59.0093V61.0093C333.681 61.0093 335.41 61.0712 336.751 61.192C338.117 61.315 338.996 61.4929 339.476 61.6848L340.219 59.8279ZM331.555 59.0093H326.849V61.0093H331.555V59.0093ZM325.849 60.0093V83.9155H327.849V60.0093H325.849ZM325.849 83.9155C325.849 85.1978 325.88 86.2488 325.945 87.0589C326.007 87.8198 326.106 88.5081 326.312 88.9612L328.133 88.1336C328.089 88.0387 328.002 87.6811 327.939 86.8981C327.88 86.1643 327.849 85.1733 327.849 83.9155H325.849ZM326.312 88.9612C326.689 89.7907 327.383 90.3661 328.248 90.7365L329.036 88.8982C328.505 88.671 328.254 88.3998 328.133 88.1336L326.312 88.9612ZM328.27 90.7459C328.781 90.9502 329.477 91.0722 330.284 91.1491C331.111 91.2279 332.136 91.2656 333.348 91.2656V89.2656C332.17 89.2656 331.215 89.2287 330.473 89.1581C329.711 89.0855 329.249 88.9834 329.013 88.8889L328.27 90.7459ZM333.348 91.2656H342.089V89.2656H333.348V91.2656ZM342.089 91.2656C348.701 91.2656 354.342 90.3327 358.979 88.4264L358.219 86.5766C353.891 88.3558 348.525 89.2656 342.089 89.2656V91.2656ZM358.988 88.4227C363.631 86.4623 367.74 83.3473 371.317 79.1066L369.788 77.8172C366.392 81.8441 362.532 84.7555 358.21 86.5802L358.988 88.4227ZM371.316 79.1074C374.943 74.8167 377.716 69.7456 379.645 63.909L377.746 63.2815C375.889 68.8999 373.234 73.7399 369.789 77.8164L371.316 79.1074ZM378.37 64.5408L392.041 69.2473L392.692 67.3562L379.021 62.6497L378.37 64.5408ZM391.424 67.9687L377.752 106.667L379.638 107.333L393.31 68.6349L391.424 67.9687ZM378.695 106H288.599V108H378.695V106ZM289.599 107V92.5815H287.599V107H289.599ZM288.599 93.5815H291.213V91.5815H288.599V93.5815ZM291.213 93.5815C292.977 93.5815 294.472 93.5187 295.69 93.3892C296.891 93.2613 297.889 93.0623 298.62 92.7575L297.851 90.9114C297.387 91.1046 296.617 91.2792 295.478 91.4004C294.355 91.5198 292.936 91.5815 291.213 91.5815V93.5815ZM298.62 92.7575C300.074 92.1521 301.11 91.0758 301.704 89.5911L299.847 88.8483C299.445 89.8539 298.789 90.5208 297.851 90.9114L298.62 92.7575ZM301.725 89.536C301.897 89.0196 301.993 88.1768 302.054 87.1306C302.118 86.0443 302.149 84.6217 302.149 82.8696H300.149C300.149 84.6039 300.118 85.9828 300.058 87.0132C299.995 88.0837 299.904 88.6728 299.827 88.9035L301.725 89.536ZM302.149 82.8696V26.0923H300.149V82.8696H302.149ZM302.149 26.0923C302.149 24.5283 302.093 23.212 301.975 22.1531C301.86 21.1176 301.678 20.241 301.381 19.6129L299.573 20.4691C299.724 20.7873 299.878 21.3924 299.987 22.374C300.094 23.3322 300.149 24.5684 300.149 26.0923H302.149ZM301.399 19.653C300.91 18.4925 300.098 17.6126 298.982 17.0548L298.087 18.8436C298.765 19.1823 299.247 19.6969 299.555 20.4291L301.399 19.653ZM299.02 17.0751C298.413 16.7379 297.605 16.5296 296.676 16.3987C295.729 16.2654 294.577 16.2021 293.23 16.2021V18.2021C294.523 18.2021 295.575 18.2634 296.397 18.3791C297.236 18.4973 297.759 18.6625 298.049 18.8234L299.02 17.0751ZM293.23 16.2021H288.599V18.2021H293.23V16.2021ZM289.599 17.2021V2.78369H287.599V17.2021H289.599ZM399.016 2.78369V1.78369H398.016V2.78369H399.016ZM446.156 2.78369L447.117 2.50957L446.911 1.78369H446.156V2.78369ZM464.235 66.21L463.273 66.4841L464.217 69.7965L465.194 66.4935L464.235 66.21ZM482.986 2.78369V1.78369H482.239L482.027 2.50018L482.986 2.78369ZM530.948 2.78369H531.948V1.78369H530.948V2.78369ZM530.948 17.2021V18.2021H531.948V17.2021H530.948ZM519.966 18.9951L519.229 18.3194L519.228 18.3208L519.966 18.9951ZM518.846 89.5933L519.758 89.1829L519.754 89.1742L518.846 89.5933ZM520.713 91.6851L521.192 90.8072L521.177 90.7986L521.161 90.7906L520.713 91.6851ZM530.948 92.5815H531.948V91.5815H530.948V92.5815ZM530.948 107V108H531.948V107H530.948ZM480.82 107H479.82V108H480.82V107ZM480.82 92.5815V91.5815H479.82V92.5815H480.82ZM492.624 89.8921L491.739 89.4263L491.734 89.4356L491.729 89.4449L492.624 89.8921ZM493.371 20.6387H494.371L492.411 20.3565L493.371 20.6387ZM467.97 107V108H468.718L468.93 107.282L467.97 107ZM453.552 107L452.592 107.282L452.803 108H453.552V107ZM428.973 23.4028L429.933 23.1208L427.973 23.4028H428.973ZM429.72 90.1162L428.872 90.6462L428.884 90.6647L428.896 90.6827L429.72 90.1162ZM431.961 91.9839L431.533 92.8876L431.561 92.9009L431.59 92.9124L431.961 91.9839ZM441.673 92.5815H442.673V91.5815H441.673V92.5815ZM441.673 107V108H442.673V107H441.673ZM399.016 107H398.016V108H399.016V107ZM399.016 92.5815V91.5815H398.016V92.5815H399.016ZM408.578 91.9092L409.006 92.8129L409.016 92.8084L409.025 92.8036L408.578 91.9092ZM410.745 89.668L409.842 89.238L409.837 89.2478L409.833 89.2576L410.745 89.668ZM410.969 20.3398L410.043 20.7185L410.048 20.7296L410.053 20.7407L410.969 20.3398ZM399.016 17.2021H398.016V18.2021H399.016V17.2021ZM399.016 3.78369H446.156V1.78369H399.016V3.78369ZM445.194 3.05781L463.273 66.4841L465.197 65.9358L447.117 2.50957L445.194 3.05781ZM465.194 66.4935L483.945 3.0672L482.027 2.50018L463.276 65.9264L465.194 66.4935ZM482.986 3.78369H530.948V1.78369H482.986V3.78369ZM529.948 2.78369V17.2021H531.948V2.78369H529.948ZM530.948 16.2021H525.793V18.2021H530.948V16.2021ZM525.793 16.2021C522.915 16.2021 520.613 16.8096 519.229 18.3194L520.703 19.6708C521.511 18.79 523.094 18.2021 525.793 18.2021V16.2021ZM519.228 18.3208C518.55 19.0627 518.101 20.0748 517.817 21.2657C517.531 22.4625 517.397 23.9034 517.397 25.5693H519.397C519.397 23.998 519.525 22.7245 519.762 21.7299C520.001 20.7294 520.336 20.073 520.705 19.6694L519.228 18.3208ZM517.397 25.5693V84.7373H519.397V25.5693H517.397ZM517.397 84.7373C517.397 86.0472 517.435 87.1333 517.514 87.9856C517.589 88.8005 517.71 89.5192 517.938 90.0123L519.754 89.1742C519.682 89.0199 519.579 88.6055 519.505 87.8018C519.435 87.0354 519.397 86.0172 519.397 84.7373H517.397ZM517.934 90.0036C518.454 91.1608 519.22 92.0563 520.266 92.5795L521.161 90.7906C520.613 90.5169 520.133 90.0179 519.758 89.1829L517.934 90.0036ZM520.235 92.563C521.527 93.2681 523.155 93.5815 525.046 93.5815V91.5815C523.352 91.5815 522.091 91.2973 521.192 90.8072L520.235 92.563ZM525.046 93.5815H530.948V91.5815H525.046V93.5815ZM529.948 92.5815V107H531.948V92.5815H529.948ZM530.948 106H480.82V108H530.948V106ZM481.82 107V92.5815H479.82V107H481.82ZM480.82 93.5815H484.705V91.5815H480.82V93.5815ZM484.705 93.5815C486.147 93.5815 487.377 93.5248 488.388 93.4067C489.383 93.2904 490.231 93.1076 490.867 92.8211L490.047 90.9973C489.687 91.159 489.078 91.3124 488.156 91.4202C487.249 91.5262 486.101 91.5815 484.705 91.5815V93.5815ZM490.867 92.8211C492.053 92.2874 492.957 91.4608 493.518 90.3393L491.729 89.4449C491.393 90.1164 490.853 90.6345 490.047 90.9973L490.867 92.8211ZM493.508 90.3578C494.132 89.1724 494.371 87.2282 494.371 84.7373H492.371C492.371 87.2269 492.111 88.7192 491.739 89.4263L493.508 90.3578ZM494.371 84.7373V20.6387H492.371V84.7373H494.371ZM492.411 20.3565L467.011 106.718L468.93 107.282L494.33 20.9208L492.411 20.3565ZM467.97 106H453.552V108H467.97V106ZM454.511 106.718L429.933 23.1208L428.014 23.6849L452.592 107.282L454.511 106.718ZM427.973 23.4028V86.7544H429.973V23.4028H427.973ZM427.973 86.7544C427.973 88.2932 428.235 89.6267 428.872 90.6462L430.568 89.5862C430.209 89.012 429.973 88.1042 429.973 86.7544H427.973ZM428.896 90.6827C429.552 91.6369 430.441 92.3703 431.533 92.8876L432.39 91.0801C431.589 90.701 430.984 90.1893 430.544 89.5497L428.896 90.6827ZM431.59 92.9124C432.771 93.3849 434.5 93.5815 436.668 93.5815V91.5815C434.552 91.5815 433.144 91.3797 432.333 91.0554L431.59 92.9124ZM436.668 93.5815H441.673V91.5815H436.668V93.5815ZM440.673 92.5815V107H442.673V92.5815H440.673ZM441.673 106H399.016V108H441.673V106ZM400.016 107V92.5815H398.016V107H400.016ZM399.016 93.5815H403.199V91.5815H399.016V93.5815ZM403.199 93.5815C404.543 93.5815 405.696 93.5247 406.648 93.4057C407.585 93.2886 408.392 93.1039 409.006 92.8129L408.15 91.0054C407.818 91.1627 407.255 91.3142 406.4 91.4212C405.558 91.5263 404.495 91.5815 403.199 91.5815V93.5815ZM409.025 92.8036C410.223 92.2047 411.112 91.2889 411.657 90.0783L409.833 89.2576C409.481 90.0392 408.925 90.6175 408.131 91.0148L409.025 92.8036ZM411.647 90.0979C412.252 88.8279 412.492 86.7283 412.492 83.9902H410.492C410.492 86.7307 410.233 88.4163 409.842 89.238L411.647 90.0979ZM412.492 83.9902V25.5693H410.492V83.9902H412.492ZM412.492 25.5693C412.492 24.2069 412.448 23.0625 412.356 22.1454C412.267 21.2529 412.125 20.4877 411.885 19.939L410.053 20.7407C410.161 20.9889 410.281 21.4936 410.366 22.3444C410.449 23.1704 410.492 24.2423 410.492 25.5693H412.492ZM411.894 19.9612C411.374 18.6892 410.562 17.7001 409.437 17.0751L408.466 18.8234C409.134 19.1944 409.667 19.7991 410.043 20.7185L411.894 19.9612ZM409.437 17.0751C408.311 16.4493 406.679 16.2021 404.693 16.2021V18.2021C406.593 18.2021 407.799 18.453 408.466 18.8234L409.437 17.0751ZM404.693 16.2021H399.016V18.2021H404.693V16.2021ZM400.016 17.2021V2.78369H398.016V17.2021H400.016ZM580.479 2.78369V1.78369H579.797L579.548 2.41859L580.479 2.78369ZM603.862 2.78369L604.794 2.42112L604.546 1.78369H603.862V2.78369ZM635.165 83.2432L634.233 83.6057L634.235 83.6108L635.165 83.2432ZM639.647 91.1621L639.037 91.9547L639.044 91.9603L639.052 91.9657L639.647 91.1621ZM646.968 92.5815H647.968V91.5674L646.954 91.5816L646.968 92.5815ZM646.968 107V108H647.968V107H646.968ZM597.662 107H596.662V108H597.662V107ZM597.662 92.5815L597.637 91.5819L596.662 91.6062V92.5815H597.662ZM600.65 92.5068V91.5068H600.637L600.625 91.5071L600.65 92.5068ZM606.402 91.4609L606.939 92.3046L606.953 92.2961L606.966 92.2872L606.402 91.4609ZM606.626 83.2432L605.675 83.5504L605.677 83.5574L605.679 83.5645L606.626 83.2432ZM603.563 73.7554L604.515 73.4481L604.291 72.7554H603.563V73.7554ZM571.813 73.7554V72.7554H571.116L570.875 73.4094L571.813 73.7554ZM567.928 84.2891L566.99 83.943L566.986 83.9541L567.928 84.2891ZM567.555 90.8633L566.791 91.5092L566.805 91.5257L566.82 91.5416L567.555 90.8633ZM570.394 92.2827L570.623 91.3093L570.618 91.3083L570.394 92.2827ZM577.416 92.5815H578.416V91.5815H577.416V92.5815ZM577.416 107V108H578.416V107H577.416ZM537.074 107H536.074V108H537.074V107ZM537.074 92.5815V91.5815H536.074V92.5815H537.074ZM545.666 89.8921L544.918 89.2277L544.908 89.2396L544.897 89.2519L545.666 89.8921ZM548.28 84.8867L547.349 84.5216L547.348 84.5252L548.28 84.8867ZM577.267 58.8887L576.329 58.5397L575.827 59.8887H577.267V58.8887ZM598.11 58.8887V59.8887H599.525L599.052 58.5548L598.11 58.8887ZM587.95 30.2012L588.892 29.8673L587.973 27.2724L587.013 29.8522L587.95 30.2012ZM580.479 3.78369H603.862V1.78369H580.479V3.78369ZM602.93 3.14626L634.233 83.6057L636.097 82.8806L604.794 2.42112L602.93 3.14626ZM634.235 83.6108C635.091 85.7758 635.907 87.553 636.685 88.9279C637.451 90.2816 638.228 91.3323 639.037 91.9547L640.257 90.3695C639.771 89.9958 639.153 89.2287 638.425 87.9427C637.71 86.678 636.932 84.9937 636.095 82.8755L634.235 83.6108ZM639.052 91.9657C640.684 93.1748 643.426 93.6315 646.982 93.5814L646.954 91.5816C643.438 91.6312 641.299 91.1416 640.242 90.3586L639.052 91.9657ZM645.968 92.5815V107H647.968V92.5815H645.968ZM646.968 106H597.662V108H646.968V106ZM598.662 107V92.5815H596.662V107H598.662ZM597.687 93.5812L600.675 93.5065L600.625 91.5071L597.637 91.5819L597.687 93.5812ZM600.65 93.5068C603.41 93.5068 605.584 93.1673 606.939 92.3046L605.865 90.6173C605.03 91.1491 603.368 91.5068 600.65 91.5068V93.5068ZM606.966 92.2872C608.252 91.4099 609.046 90.2365 609.046 88.7715H607.046C607.046 89.3983 606.744 90.0178 605.839 90.6347L606.966 92.2872ZM609.046 88.7715C609.046 88.1893 608.899 87.4013 608.66 86.4684C608.414 85.5131 608.051 84.3289 607.573 82.9219L605.679 83.5645C606.148 84.9465 606.495 86.0782 606.722 86.9657C606.956 87.8755 607.046 88.4571 607.046 88.7715H609.046ZM607.578 82.9359L604.515 73.4481L602.612 74.0626L605.675 83.5504L607.578 82.9359ZM603.563 72.7554H571.813V74.7554H603.563V72.7554ZM570.875 73.4094L566.99 83.943L568.866 84.6351L572.751 74.1014L570.875 73.4094ZM566.986 83.9541C566.583 85.087 566.275 86.0412 566.067 86.8102C565.865 87.554 565.733 88.2056 565.733 88.6968H567.733C567.733 88.4907 567.8 88.059 567.997 87.3336C568.187 86.6334 568.476 85.7323 568.87 84.6241L566.986 83.9541ZM565.733 88.6968C565.733 89.7461 566.101 90.6938 566.791 91.5092L568.318 90.2173C567.912 89.7379 567.733 89.2412 567.733 88.6968H565.733ZM566.82 91.5416C567.607 92.3942 568.771 92.9346 570.169 93.2571L570.618 91.3083C569.426 91.0331 568.698 90.6272 568.289 90.185L566.82 91.5416ZM570.165 93.2561C570.693 93.3804 571.58 93.4565 572.742 93.5059C573.932 93.5566 575.492 93.5815 577.416 93.5815V91.5815C575.505 91.5815 573.977 91.5567 572.827 91.5077C571.648 91.4576 570.941 91.3843 570.623 91.3093L570.165 93.2561ZM576.416 92.5815V107H578.416V92.5815H576.416ZM577.416 106H537.074V108H577.416V106ZM538.074 107V92.5815H536.074V107H538.074ZM537.074 93.5815C539.687 93.5815 541.731 93.3601 543.103 92.8455L542.401 90.9729C541.383 91.3547 539.642 91.5815 537.074 91.5815V93.5815ZM543.103 92.8455C544.445 92.3423 545.565 91.5743 546.434 90.5323L544.897 89.2519C544.271 90.0029 543.449 90.5796 542.401 90.9729L543.103 92.8455ZM546.413 90.5565C547.338 89.5157 548.262 87.6998 549.213 85.2482L547.348 84.5252C546.406 86.9545 545.587 88.4755 544.918 89.2277L546.413 90.5565ZM549.211 85.2518L581.41 3.14879L579.548 2.41859L547.349 84.5216L549.211 85.2518ZM577.267 59.8887H598.11V57.8887H577.267V59.8887ZM599.052 58.5548L588.892 29.8673L587.007 30.535L597.167 59.2225L599.052 58.5548ZM587.013 29.8522L576.329 58.5397L578.204 59.2377L588.887 30.5502L587.013 29.8522ZM731.537 2.78369L732.505 2.53532L732.313 1.78369H731.537V2.78369ZM740.501 37.7466L740.776 38.7083L741.712 38.4415L741.47 37.4982L740.501 37.7466ZM726.606 41.7061L725.732 42.1926L726.118 42.8849L726.88 42.6678L726.606 41.7061ZM710.843 23.4775L710.291 24.3118L710.296 24.315L710.843 23.4775ZM681.931 20.2651L681.358 19.4459L681.35 19.4514L681.931 20.2651ZM681.632 32.8906L682.323 32.1672L682.315 32.1596L681.632 32.8906ZM693.735 38.4937L694.014 37.5334L694.004 37.5306L693.735 38.4937ZM713.756 44.3208L713.477 45.281L713.48 45.282L713.756 44.3208ZM737.513 57.021L738.264 56.361L738.258 56.3536L737.513 57.021ZM733.778 98.4834L734.429 99.2427L734.433 99.2386L733.778 98.4834ZM688.655 106.701L688.357 107.656L688.366 107.659L688.655 106.701ZM674.162 99.5293L674.714 98.696L673.725 98.0394L673.246 99.1266L674.162 99.5293ZM670.875 107V108H671.527L671.79 107.403L670.875 107ZM659.743 107L658.759 107.18L658.91 108H659.743V107ZM652.347 66.5835L652.113 65.6113L651.193 65.8327L651.364 66.7635L652.347 66.5835ZM666.317 63.2217L667.246 62.8503L666.925 62.047L666.083 62.2494L666.317 63.2217ZM681.632 83.8408L681.008 84.6223L681.015 84.6271L681.632 83.8408ZM713.831 90.6392L713.476 89.7044L713.47 89.7068L713.831 90.6392ZM716.969 73.7554L717.564 72.952L717.558 72.9472L716.969 73.7554ZM701.579 67.4053L701.299 68.3652L701.304 68.3668L701.579 67.4053ZM684.172 62.3252L684.453 61.3652L684.445 61.363L684.172 62.3252ZM673.415 58.1416L672.992 59.0479L673.004 59.0533L673.415 58.1416ZM663.03 51.6421L662.346 52.3717L662.354 52.3786L663.03 51.6421ZM657.054 43.0508L656.142 43.4617L656.144 43.4665L657.054 43.0508ZM659.22 16.6792L658.385 16.1286L658.384 16.1307L659.22 16.6792ZM673.041 5.32373L672.617 4.41792L672.615 4.41925L673.041 5.32373ZM717.94 8.01318L717.399 8.85399L718.295 9.43097L718.814 8.49989L717.94 8.01318ZM720.854 2.78369V1.78369H720.266L719.98 2.29699L720.854 2.78369ZM730.568 3.03207L739.533 37.995L741.47 37.4982L732.505 2.53532L730.568 3.03207ZM740.227 36.7849L726.332 40.7443L726.88 42.6678L740.776 38.7083L740.227 36.7849ZM727.48 41.2195C722.796 32.8086 717.442 26.5897 711.389 22.6401L710.296 24.315C715.998 28.0353 721.153 33.9688 725.732 42.1926L727.48 41.2195ZM711.394 22.6433C705.365 18.6576 698.924 16.6504 692.091 16.6504V18.6504C698.507 18.6504 704.567 20.5279 710.291 24.3118L711.394 22.6433ZM692.091 16.6504C687.684 16.6504 684.072 17.5459 681.358 19.4459L682.505 21.0844C684.771 19.4981 687.932 18.6504 692.091 18.6504V16.6504ZM681.35 19.4514C678.76 21.3015 677.271 23.5102 677.271 26.0923H679.271C679.271 24.3912 680.222 22.7151 682.512 21.0789L681.35 19.4514ZM677.271 26.0923C677.271 28.8775 678.562 31.3924 680.95 33.6217L682.315 32.1596C680.221 30.2052 679.271 28.1879 679.271 26.0923H677.271ZM680.942 33.614C683.321 35.8851 687.56 37.8052 693.466 39.4567L694.004 37.5306C688.156 35.895 684.326 34.0797 682.323 32.1673L680.942 33.614ZM693.455 39.4538L713.477 45.281L714.036 43.3606L694.014 37.5335L693.455 39.4538ZM713.48 45.282C724.509 48.4471 732.219 52.6118 736.768 57.6884L738.258 56.3536C733.345 50.8716 725.217 46.5695 714.032 43.3596L713.48 45.282ZM736.762 57.681C741.284 62.8282 743.536 68.7945 743.536 75.623H745.536C745.536 68.3071 743.106 61.872 738.264 56.361L736.762 57.681ZM743.536 75.623C743.536 84.3308 740.089 91.681 733.122 97.7282L734.433 99.2386C741.811 92.8346 745.536 84.9446 745.536 75.623H743.536ZM733.127 97.7241C725.313 104.422 715.592 107.793 703.895 107.793V109.793C716.005 109.793 726.206 106.291 734.429 99.2427L733.127 97.7241ZM703.895 107.793C698.451 107.793 693.469 107.106 688.943 105.744L688.366 107.659C693.104 109.085 698.283 109.793 703.895 109.793V107.793ZM688.952 105.747C684.43 104.336 679.684 101.993 674.714 98.696L673.609 100.363C678.7 103.74 683.616 106.177 688.357 107.656L688.952 105.747ZM673.246 99.1266L669.959 106.597L671.79 107.403L675.077 99.932L673.246 99.1266ZM670.875 106H659.743V108H670.875V106ZM660.727 106.82L653.331 66.4035L651.364 66.7635L658.759 107.18L660.727 106.82ZM652.581 67.5557L666.551 64.1939L666.083 62.2494L652.113 65.6113L652.581 67.5557ZM665.389 63.5931C668.74 71.9717 673.95 78.986 681.008 84.6222L682.256 83.0594C675.469 77.639 670.469 70.9072 667.246 62.8503L665.389 63.5931ZM681.015 84.6271C688.151 90.2343 696.011 93.0586 704.567 93.0586V91.0586C696.489 91.0586 689.059 88.4044 682.25 83.0545L681.015 84.6271ZM704.567 93.0586C708.378 93.0586 711.599 92.5772 714.193 91.5715L713.47 89.7068C711.182 90.5937 708.228 91.0586 704.567 91.0586V93.0586ZM714.186 91.5739C716.809 90.5774 718.854 89.1572 720.24 87.2721L718.628 86.0873C717.524 87.5889 715.834 88.8083 713.476 89.7044L714.186 91.5739ZM720.24 87.2721C721.589 85.4376 722.302 83.4913 722.302 81.4502H720.302C720.302 82.995 719.77 84.5351 718.628 86.0873L720.24 87.2721ZM722.302 81.4502C722.302 78.0791 720.649 75.2391 717.564 72.9521L716.373 74.5587C719.066 76.5548 720.302 78.8447 720.302 81.4502H722.302ZM717.558 72.9472C714.468 70.6953 709.192 68.5404 701.854 66.4437L701.304 68.3668C708.609 70.4538 713.593 72.5323 716.38 74.5635L717.558 72.9472ZM701.859 66.4453L684.453 61.3652L683.892 63.2851L701.299 68.3652L701.859 66.4453ZM684.445 61.363C681.876 60.636 678.342 59.2651 673.825 57.2299L673.004 59.0533C677.551 61.1021 681.19 62.5203 683.9 63.2874L684.445 61.363ZM673.837 57.2354C669.407 55.1678 666.044 53.0525 663.707 50.9056L662.354 52.3786C664.897 54.7141 668.458 56.9319 672.992 59.0478L673.837 57.2354ZM663.714 50.9126C661.433 48.774 659.512 46.0229 657.963 42.635L656.144 43.4665C657.783 47.0513 659.846 50.0277 662.346 52.3716L663.714 50.9126ZM657.965 42.6399C656.43 39.2331 655.663 35.6628 655.663 31.9194H653.663C653.663 35.9456 654.49 39.7962 656.142 43.4617L657.965 42.6399ZM655.663 31.9194C655.663 26.5864 657.125 21.6969 660.056 17.2277L658.384 16.1307C655.239 20.9252 653.663 26.1958 653.663 31.9194H655.663ZM660.055 17.2298C663.023 12.7304 667.473 9.05493 673.468 6.22822L672.615 4.41925C666.357 7.36987 661.594 11.2647 658.385 16.1286L660.055 17.2298ZM673.465 6.22954C679.496 3.40865 686.172 1.99072 693.511 1.99072V-0.00927734C685.908 -0.00927734 678.938 1.46147 672.617 4.41792L673.465 6.22954ZM693.511 1.99072C702.342 1.99072 710.296 4.28082 717.399 8.85399L718.481 7.17238C711.041 2.38227 702.709 -0.00927734 693.511 -0.00927734V1.99072ZM718.814 8.49989L721.727 3.27039L719.98 2.29699L717.066 7.52648L718.814 8.49989ZM720.854 3.78369H731.537V1.78369H720.854V3.78369Z" fill="white"/>
</svg>
