<svg width="195" height="198" viewBox="0 0 195 198" fill="none" xmlns="http://www.w3.org/2000/svg">
<g id="loading-welocome">
<g id="mouse">
<path fill-rule="evenodd" clip-rule="evenodd" d="M95.5 86.1429C95.5 84.7227 96.6193 83.5714 98 83.5714C99.3807 83.5714 100.5 84.7227 100.5 86.1429V93C100.5 94.4202 99.3807 95.5714 98 95.5714C96.6193 95.5714 95.5 94.4202 95.5 93V86.1429ZM99.6667 86.1429V93C99.6667 93.9468 98.9205 94.7143 98 94.7143C97.0795 94.7143 96.3333 93.9468 96.3333 93V86.1429C96.3333 85.1961 97.0795 84.4286 98 84.4286C98.9205 84.4286 99.6667 85.1961 99.6667 86.1429Z" fill="white"/>
<path fill-rule="evenodd" clip-rule="evenodd" d="M83 90.4286C83 81.9076 89.7157 75 98 75C106.284 75 113 81.9076 113 90.4286V107.571C113 116.092 106.284 123 98 123C89.7157 123 83 116.092 83 107.571V90.4286ZM112.167 90.4286V107.571C112.167 115.619 105.824 122.143 98 122.143C90.176 122.143 83.8333 115.619 83.8333 107.571V90.4286C83.8333 82.381 90.176 75.8571 98 75.8571C105.824 75.8571 112.167 82.381 112.167 90.4286Z" fill="white"/>
</g>
<g id="welcome-round">
<animateTransform attributeName="transform"
  type="rotate"
  from="0 224 224" to="360 0 0"
  begin="0s" dur="5s"
  repeatCount="indefinite"
/>
<path fill-rule="evenodd" clip-rule="evenodd" d="M96.0166 4.76566C96.0544 5.42858 96.0049 6.03638 95.8681 6.58906C95.7309 7.13375 95.5057 7.61134 95.1926 8.02183C94.8874 8.43186 94.4931 8.75482 94.0098 8.99071C93.5344 9.22615 92.9733 9.3623 92.3263 9.39918C91.6554 9.43743 91.0664 9.36683 90.5594 9.18739C90.0519 8.99997 89.6235 8.72391 89.2742 8.35919C88.9244 7.9865 88.6542 7.53314 88.4635 6.99913C88.2728 6.46511 88.1585 5.86665 88.1207 5.20372C88.0706 4.32515 88.1707 3.5502 88.4209 2.87887C88.6711 2.20754 89.0773 1.67156 89.6394 1.27092C90.2095 0.869828 90.9418 0.643785 91.8363 0.592793C92.6909 0.544078 93.4202 0.686805 94.0242 1.02097C94.6278 1.34715 95.0962 1.83328 95.4295 2.47936C95.7704 3.117 95.966 3.8791 96.0166 4.76566ZM89.2596 5.15083C89.3005 5.86966 89.4357 6.48296 89.6649 6.99074C89.8942 7.49851 90.2245 7.88034 90.6557 8.13621C91.095 8.39162 91.6341 8.50112 92.273 8.4647C92.92 8.42782 93.4392 8.258 93.8306 7.95523C94.23 7.65201 94.5147 7.23513 94.6848 6.70459C94.8549 6.17405 94.9194 5.54937 94.8784 4.83053C94.817 3.75229 94.5453 2.9224 94.0634 2.34088C93.5811 1.75138 92.8567 1.48417 91.8903 1.53926C91.2433 1.57613 90.7162 1.74641 90.3088 2.05009C89.9089 2.34532 89.624 2.75821 89.4539 3.28875C89.2834 3.8113 89.2186 4.43199 89.2596 5.15083Z" fill="white"/>
<path d="M78.4659 11.2227L79.522 10.9968L77.9284 3.54529L80.5335 2.98818L80.3353 2.06114L74.0572 3.40374L74.2555 4.33077L76.8723 3.77115L78.4659 11.2227Z" fill="white"/>
<path d="M53.3127 20.9929L49.2366 23.5051L44.7413 16.2111L48.8173 13.699L49.3147 14.506L46.1581 16.4515L47.5621 18.7296L50.5348 16.8974L51.0259 17.6942L48.0532 19.5264L49.6587 22.1314L52.8153 20.1859L53.3127 20.9929Z" fill="white"/>
<path d="M32.389 27.1246L39.431 30.9708L40.1034 30.3908L37.3672 22.8463L37.4035 22.8149C37.5072 22.9473 37.634 23.1127 37.7838 23.3109C37.9285 23.5031 38.0892 23.7078 38.2661 23.9251C38.4377 24.1362 38.6149 24.3479 38.7978 24.5599L42.2387 28.5489L43.0474 27.8513L37.451 21.3635L36.2516 22.3981L38.8015 29.4695L38.7651 29.5008L32.1808 25.9095L30.9723 26.952L36.5687 33.4398L37.3229 32.7892L33.929 28.8548C33.7304 28.6246 33.5341 28.4031 33.3399 28.1902C33.1405 27.9713 32.9538 27.7732 32.7797 27.5958C32.6116 27.4133 32.4693 27.2666 32.3527 27.1559L32.389 27.1246Z" fill="white"/>
<path fill-rule="evenodd" clip-rule="evenodd" d="M27.9434 36.2668C28.4587 36.6856 28.8744 37.1318 29.1906 37.6053C29.5005 38.0737 29.7016 38.562 29.7939 39.0699C29.8912 39.5717 29.8641 40.0807 29.7127 40.5967C29.5663 41.1066 29.2887 41.613 28.88 42.1158C28.4561 42.6373 28.0071 43.0249 27.5328 43.2785C27.0523 43.5272 26.5597 43.6577 26.0548 43.67C25.5437 43.6773 25.0267 43.5714 24.5036 43.3525C23.9806 43.1335 23.4614 42.8146 22.9462 42.3958C22.2633 41.8407 21.7582 41.2446 21.4308 40.6073C21.1034 39.97 20.9811 39.3088 21.0639 38.6235C21.1517 37.932 21.4782 37.2386 22.0434 36.5433C22.5833 35.8791 23.1802 35.4364 23.8341 35.2153C24.4818 34.9892 25.1567 34.9707 25.8586 35.1599C26.5594 35.3377 27.2543 35.7067 27.9434 36.2668ZM23.6745 41.5187C24.2332 41.9729 24.7774 42.2863 25.3071 42.4591C25.8367 42.6319 26.3414 42.6452 26.8211 42.499C27.3058 42.3466 27.75 42.0221 28.1537 41.5254C28.5624 41.0226 28.7868 40.5246 28.8269 40.0314C28.872 39.5319 28.7558 39.0406 28.4785 38.5574C28.2011 38.0743 27.7831 37.6056 27.2244 37.1515C26.3863 36.4702 25.5901 36.1117 24.8357 36.0759C24.0751 36.035 23.3895 36.3901 22.779 37.1413C22.3703 37.6441 22.1408 38.1483 22.0907 38.654C22.0393 39.1483 22.1524 39.6371 22.4297 40.1203C22.7009 40.5984 23.1158 41.0646 23.6745 41.5187Z" fill="white"/>
<path d="M14.2922 50.013C14.3375 49.6143 14.474 49.2174 14.7018 48.8224C14.8936 48.4897 15.111 48.2088 15.354 47.9795C15.6011 47.7433 15.8425 47.5409 16.0783 47.3721L15.5041 46.5423C15.2056 46.7396 14.9163 46.9929 14.6363 47.3024C14.3562 47.6119 14.1063 47.9572 13.8865 48.3384C13.5548 48.9136 13.3546 49.4769 13.286 50.0284C13.2104 50.5758 13.2545 51.0999 13.4182 51.6007C13.586 52.0945 13.856 52.555 14.2284 52.9822C14.6048 53.4024 15.0737 53.7743 15.6351 54.0981C16.4113 54.5457 17.1589 54.8106 17.878 54.8928C18.6011 54.9681 19.2644 54.8427 19.868 54.5166C20.4716 54.1905 20.9912 53.6498 21.4268 52.8944C21.6626 52.4855 21.8402 52.1215 21.9595 51.8025C22.0828 51.4765 22.1725 51.1449 22.2284 50.8078L21.4175 50.3402C21.3408 50.6654 21.2463 50.9895 21.1339 51.3125C21.0215 51.6356 20.8714 51.9599 20.6835 52.2857C20.3558 52.854 19.9608 53.2587 19.4984 53.5C19.0401 53.7344 18.5297 53.8187 17.9673 53.753C17.4089 53.6803 16.8248 53.4682 16.215 53.1165C15.7506 52.8487 15.3688 52.55 15.0694 52.2204C14.7631 51.8868 14.5457 51.5352 14.4172 51.1655C14.2817 50.7919 14.2401 50.4077 14.2922 50.013Z" fill="white"/>
<path d="M14.6236 66.9071L6.66913 63.7233L7.07046 62.7206L14.1337 65.5477L15.5249 62.0718L16.4162 62.4285L14.6236 66.9071Z" fill="white"/>
<path d="M11.2125 78.5066L12.3695 73.8605L11.4496 73.6314L10.5536 77.2295L7.58428 76.4901L8.42814 73.1015L7.51988 72.8754L6.67602 76.2639L4.07933 75.6172L4.97539 72.0191L4.05548 71.79L2.89844 76.4361L11.2125 78.5066Z" fill="white"/>
<path d="M9.64433 87.9331L1.28281 84.9845L1.19386 86.109L6.29351 87.8365C6.53569 87.9199 6.7742 87.999 7.00903 88.0737C7.24387 88.1485 7.47136 88.2146 7.69151 88.2721C7.90368 88.3291 8.10851 88.3774 8.306 88.4171C8.16853 88.4303 8.01878 88.4465 7.85675 88.4658C7.68739 88.4765 7.5134 88.4948 7.33479 88.5208C7.15618 88.5468 6.97328 88.5765 6.78606 88.6098C6.59088 88.6425 6.39936 88.6795 6.21152 88.7208L0.895768 89.8772L0.80776 90.9898L5.84442 92.9049C6.01608 92.9666 6.19174 93.0287 6.37138 93.091C6.55102 93.1534 6.73098 93.2118 6.91125 93.2662C7.08355 93.3199 7.25217 93.3694 7.41713 93.4145C7.58271 93.4517 7.74431 93.4886 7.90192 93.5251C7.7485 93.537 7.59109 93.5487 7.4297 93.56C7.2683 93.5713 7.10229 93.5902 6.93166 93.6169C6.75368 93.6349 6.57539 93.6569 6.39678 93.6829C6.2102 93.7083 6.02331 93.7376 5.83609 93.771L0.515346 94.6862L0.426392 95.8107L9.14656 94.2254L9.23268 93.1368L3.79781 91.0818C3.6188 91.0115 3.44315 90.9495 3.27085 90.8957C3.09121 90.8333 2.92321 90.7759 2.76686 90.7234C2.61052 90.6709 2.47715 90.6323 2.36676 90.6075C2.24903 90.5741 2.16256 90.5512 2.10737 90.5388C2.16382 90.5353 2.25281 90.5263 2.37433 90.5118C2.48851 90.4887 2.62692 90.4636 2.78958 90.4363C2.95223 90.4091 3.12318 90.3784 3.30242 90.3445C3.48165 90.3105 3.6569 90.2762 3.82817 90.2416L9.55821 89.0217L9.64433 87.9331Z" fill="white"/>
<path fill-rule="evenodd" clip-rule="evenodd" d="M128.318 5.7216C127.902 5.4467 127.354 5.2015 126.676 4.98601L124.343 4.2451L121.749 12.4113L124.62 13.3229C125.207 13.5093 125.738 13.5814 126.213 13.5392C126.698 13.4918 127.11 13.3329 127.448 13.0624C127.788 12.7843 128.036 12.3974 128.194 11.9018C128.329 11.4748 128.359 11.1025 128.284 10.7848C128.209 10.4671 128.053 10.191 127.817 9.95651C127.588 9.72448 127.311 9.52729 126.985 9.36496L127.003 9.30778C127.358 9.35331 127.675 9.33234 127.955 9.24486C128.244 9.15217 128.485 9.00199 128.677 8.79432C128.879 8.58144 129.031 8.31488 129.132 7.99464C129.29 7.49903 129.297 7.06501 129.156 6.69258C129.021 6.32258 128.742 5.99892 128.318 5.7216ZM127.324 8.65423C126.994 8.79303 126.479 8.75105 125.777 8.52829L124.268 8.04888L125.092 5.45264L126.442 5.8812C127.136 6.10154 127.607 6.36046 127.857 6.65798C128.117 6.95029 128.175 7.32138 128.032 7.77125C127.892 8.21348 127.656 8.50781 127.324 8.65423ZM123.055 11.8689L123.995 8.90667L125.562 9.40424C126.065 9.56404 126.443 9.75095 126.694 9.96495C126.955 10.1738 127.112 10.4043 127.166 10.6565C127.228 10.9112 127.213 11.1834 127.121 11.4731C126.976 11.9306 126.717 12.2556 126.346 12.4481C125.974 12.6407 125.426 12.6219 124.702 12.3919L123.055 11.8689Z" fill="white"/>
<path fill-rule="evenodd" clip-rule="evenodd" d="M139.948 10.242C140.588 10.5552 141.072 10.8947 141.4 11.2606C141.74 11.6228 141.931 12.0148 141.973 12.4366C142.016 12.8584 141.918 13.3136 141.679 13.8022C141.478 14.2117 141.235 14.516 140.951 14.715C140.666 14.9141 140.365 15.0382 140.047 15.0873C139.739 15.1328 139.434 15.1388 139.129 15.1055L139.552 19.5887L138.42 19.0343L138.114 14.942L136.583 14.1924L135.026 17.3714L134.056 16.8963L137.825 9.20194L139.948 10.242ZM139.483 11.0561L138.384 10.5176L136.985 13.3734L138.138 13.9382C138.554 14.1424 138.922 14.2557 139.241 14.2781C139.563 14.2934 139.838 14.2232 140.065 14.0675C140.3 13.9153 140.497 13.6776 140.655 13.3543C140.821 13.0166 140.884 12.7138 140.846 12.4458C140.816 12.1812 140.687 11.9354 140.459 11.7083C140.232 11.4812 139.907 11.2638 139.483 11.0561Z" fill="white"/>
<path fill-rule="evenodd" clip-rule="evenodd" d="M152.929 25.2596C153.38 24.9122 153.797 24.4673 154.18 23.925C154.692 23.1997 155.013 22.4814 155.143 21.7702C155.285 21.0571 155.221 20.385 154.951 19.7541C154.687 19.1166 154.205 18.5509 153.506 18.057C152.774 17.5401 152.06 17.2612 151.364 17.2202C150.675 17.1839 150.023 17.3505 149.41 17.7202C148.796 18.0898 148.235 18.6341 147.727 19.3528C147.344 19.8952 147.061 20.4347 146.878 20.9713C146.695 21.508 146.624 22.031 146.666 22.5404C146.712 23.0433 146.876 23.526 147.156 23.9886C147.441 24.4447 147.858 24.8666 148.407 25.2542C148.937 25.6281 149.461 25.8708 149.979 25.9825C150.504 26.0988 151.014 26.0914 151.508 25.9605C152.009 25.8341 152.482 25.6005 152.929 25.2596ZM147.824 21.7127C147.96 21.1725 148.236 20.6084 148.652 20.0203C149.067 19.4323 149.504 18.9868 149.963 18.684C150.426 18.3746 150.906 18.2289 151.403 18.2467C151.911 18.2626 152.429 18.4575 152.959 18.8314C153.749 19.3898 154.15 20.0499 154.16 20.8115C154.176 21.5665 153.872 22.3852 153.249 23.2673C152.833 23.8554 152.394 24.3041 151.93 24.6135C151.467 24.9228 150.985 25.0718 150.483 25.0605C149.989 25.0538 149.477 24.8636 148.947 24.4897C148.425 24.1205 148.071 23.6992 147.886 23.2259C147.708 22.7572 147.687 22.2528 147.824 21.7127Z" fill="white"/>
<path fill-rule="evenodd" clip-rule="evenodd" d="M161.374 36.1341L162.49 33.5167L160.063 31.1419L157.479 32.3244L156.698 31.5608L165.108 27.7515L165.803 28.4312L162.171 36.9145L161.374 36.1341ZM164.056 30.0797C164.084 30.0171 164.136 29.9062 164.214 29.747C164.291 29.5877 164.372 29.4256 164.455 29.2607C164.549 29.0956 164.618 28.9675 164.663 28.8765C164.522 28.9629 164.376 29.0494 164.224 29.1359C164.084 29.2223 163.949 29.2973 163.819 29.361C163.696 29.4302 163.589 29.488 163.499 29.5342L160.991 30.7074L162.93 32.6039L164.056 30.0797Z" fill="white"/>
<path fill-rule="evenodd" clip-rule="evenodd" d="M171.874 45.8018C172.608 45.7016 173.359 45.3639 174.128 44.7885C174.864 44.2371 175.376 43.6392 175.663 42.9946C175.956 42.3453 176.042 41.6717 175.919 40.974C175.797 40.2763 175.476 39.5816 174.959 38.89L173.376 36.7767L166.518 41.9117L167.949 43.8233C168.515 44.579 169.128 45.1243 169.788 45.4593C170.449 45.7942 171.144 45.9084 171.874 45.8018ZM174.684 42.4682C174.447 42.9656 174.024 43.442 173.416 43.8975C172.513 44.5736 171.656 44.8504 170.845 44.7281C170.045 44.6075 169.297 44.0828 168.602 43.1543L167.905 42.2225L173.284 38.195L174.125 39.3189C174.538 39.8697 174.792 40.4091 174.887 40.9372C174.994 41.4668 174.926 41.9772 174.684 42.4682Z" fill="white"/>
<path d="M186.634 58.4676L177.955 60.2817L177.465 59.3062L181.732 55.2921C181.86 55.1737 181.992 55.0535 182.128 54.9316C182.264 54.8096 182.394 54.6948 182.519 54.5871C182.644 54.4795 182.749 54.3862 182.835 54.3073C182.931 54.2319 183.003 54.1781 183.049 54.1457C182.995 54.1638 182.91 54.189 182.792 54.2215C182.684 54.2576 182.55 54.2937 182.389 54.3299C182.228 54.366 182.055 54.404 181.869 54.4438C181.694 54.4872 181.512 54.5252 181.322 54.5579L175.609 55.6186L175.118 54.6431L181.753 48.7663L182.26 49.7739L178.185 53.3153C178.042 53.4409 177.897 53.5629 177.751 53.6813C177.612 53.7962 177.471 53.9074 177.328 54.0151C177.196 54.1264 177.064 54.2286 176.932 54.322C176.799 54.4153 176.671 54.5069 176.546 54.5967C176.7 54.5462 176.857 54.4939 177.018 54.4398C177.182 54.3929 177.352 54.3478 177.527 54.3044C177.71 54.2574 177.894 54.2141 178.08 54.1742C178.266 54.1344 178.448 54.0964 178.627 54.0602L183.926 53.0863L184.428 54.0833L180.482 57.8283C180.343 57.961 180.198 58.0919 180.049 58.2211C179.906 58.3467 179.765 58.4669 179.625 58.5817C179.486 58.6965 179.347 58.8024 179.208 58.8994C179.079 58.9999 178.959 59.0914 178.849 59.174C179.038 59.1055 179.238 59.0406 179.449 58.9793C179.667 58.9143 179.896 58.8529 180.136 58.7951C180.375 58.7373 180.62 58.6812 180.871 58.6269L186.127 57.46L186.634 58.4676Z" fill="white"/>
<path fill-rule="evenodd" clip-rule="evenodd" d="M185.319 72.5391L183.082 74.2983L183.407 75.366L190.667 69.6702L190.384 68.7403L181.178 68.0414L181.496 69.0861L184.33 69.2901L185.319 72.5391ZM188.641 70.0608C188.497 70.1633 188.397 70.2353 188.343 70.2769L186.143 71.9497L185.353 69.3551L188.116 69.5307C188.217 69.5334 188.339 69.534 188.48 69.5327C188.625 69.5391 188.779 69.5381 188.944 69.5298C189.118 69.5268 189.288 69.5212 189.453 69.5129C189.37 69.5714 189.248 69.6504 189.086 69.7499C188.934 69.8547 188.786 69.9584 188.641 70.0608Z" fill="white"/>
<path d="M189.43 83.3758L193.933 84.94L194.11 86.0904L188.492 84.0668L185.207 84.5733L185.043 83.5059L188.28 83.0067L193.075 79.3777L193.255 80.54L189.43 83.3758Z" fill="white"/>
<path d="M185.816 109.471L194.198 112.36L194.279 111.235L189.167 109.544C188.924 109.462 188.685 109.385 188.45 109.312C188.214 109.239 187.986 109.174 187.766 109.118C187.553 109.063 187.348 109.016 187.15 108.978C187.288 108.963 187.437 108.946 187.599 108.926C187.769 108.914 187.942 108.894 188.121 108.867C188.299 108.84 188.482 108.809 188.669 108.774C188.864 108.74 189.055 108.702 189.243 108.659L194.55 107.465L194.63 106.351L189.58 104.472C189.408 104.412 189.232 104.351 189.052 104.29C188.871 104.229 188.691 104.172 188.51 104.119C188.338 104.066 188.169 104.018 188.004 103.974C187.838 103.938 187.676 103.902 187.518 103.867C187.671 103.854 187.829 103.841 187.99 103.829C188.151 103.816 188.317 103.796 188.488 103.768C188.665 103.749 188.844 103.726 189.022 103.698C189.208 103.672 189.395 103.641 189.582 103.606L194.896 102.653L194.977 101.528L186.268 103.175L186.19 104.265L191.639 106.281C191.819 106.35 191.995 106.411 192.168 106.463C192.348 106.524 192.516 106.58 192.673 106.632C192.83 106.683 192.963 106.721 193.074 106.745C193.192 106.777 193.278 106.8 193.334 106.812C193.302 106.814 193.26 106.818 193.207 106.824L193.155 106.83C193.128 106.833 193.098 106.837 193.067 106.841C192.953 106.864 192.815 106.891 192.652 106.919C192.49 106.947 192.319 106.979 192.14 107.015C191.961 107.05 191.786 107.085 191.615 107.121L185.894 108.382L185.816 109.471Z" fill="white"/>
<path d="M183.191 123.563L184.315 118.909L192.643 120.92L191.519 125.574L190.598 125.351L191.468 121.747L188.867 121.119L188.047 124.513L187.138 124.294L187.957 120.899L184.983 120.181L184.112 123.785L183.191 123.563Z" fill="white"/>
<path d="M188.963 133.659L180.986 130.532L179.226 135.023L180.12 135.374L181.486 131.888L188.569 134.665L188.963 133.659Z" fill="white"/>
<path d="M181.037 148.617C181.262 148.22 181.396 147.822 181.438 147.423C181.488 147.028 181.443 146.644 181.305 146.272C181.174 145.903 180.954 145.553 180.645 145.222C180.344 144.894 179.96 144.598 179.494 144.334C178.881 143.986 178.296 143.778 177.737 143.71C177.174 143.648 176.664 143.736 176.207 143.974C175.747 144.218 175.355 144.626 175.031 145.196C174.846 145.523 174.698 145.849 174.588 146.173C174.478 146.497 174.385 146.821 174.311 147.147L173.497 146.685C173.55 146.348 173.637 146.016 173.758 145.689C173.876 145.369 174.051 145.004 174.283 144.593C174.714 143.835 175.229 143.29 175.831 142.96C176.432 142.629 177.094 142.499 177.818 142.569C178.538 142.646 179.287 142.906 180.066 143.348C180.63 143.668 181.102 144.036 181.481 144.454C181.856 144.878 182.13 145.337 182.301 145.83C182.468 146.329 182.516 146.853 182.444 147.401C182.38 147.953 182.184 148.518 181.856 149.095C181.639 149.478 181.391 149.825 181.114 150.136C180.836 150.448 180.548 150.703 180.251 150.903L179.671 150.077C179.906 149.907 180.146 149.702 180.391 149.464C180.632 149.233 180.848 148.951 181.037 148.617Z" fill="white"/>
<path fill-rule="evenodd" clip-rule="evenodd" d="M166.629 159.937C166.949 160.408 167.367 160.852 167.886 161.267C168.579 161.822 169.276 162.186 169.978 162.359C170.682 162.543 171.356 162.52 172.002 162.289C172.655 162.063 173.248 161.616 173.784 160.948C174.344 160.249 174.665 159.553 174.748 158.861C174.826 158.175 174.699 157.515 174.367 156.88C174.035 156.245 173.526 155.652 172.839 155.102C172.321 154.687 171.799 154.372 171.275 154.157C170.75 153.941 170.232 153.839 169.721 153.85C169.217 153.866 168.725 154 168.246 154.252C167.774 154.509 167.327 154.9 166.907 155.425C166.502 155.93 166.228 156.439 166.086 156.949C165.938 157.467 165.914 157.976 166.015 158.477C166.111 158.984 166.316 159.471 166.629 159.937ZM170.478 155.056C171.009 155.225 171.555 155.534 172.117 155.984C172.679 156.435 173.097 156.898 173.372 157.374C173.652 157.855 173.769 158.343 173.721 158.838C173.675 159.344 173.449 159.85 173.044 160.355C172.438 161.111 171.755 161.471 170.995 161.435C170.24 161.405 169.441 161.052 168.598 160.377C168.036 159.927 167.615 159.461 167.334 158.98C167.053 158.499 166.934 158.008 166.975 157.509C167.012 157.015 167.233 156.515 167.638 156.01C168.038 155.51 168.48 155.183 168.963 155.027C169.442 154.877 169.947 154.887 170.478 155.056Z" fill="white"/>
<path d="M156.436 166.645L163.505 170.44L163.542 170.409C163.424 170.299 163.281 170.153 163.111 169.972C162.936 169.796 162.748 169.599 162.547 169.382C162.351 169.17 162.153 168.95 161.953 168.721L158.531 164.811L159.281 164.155L164.923 170.603L163.722 171.654L157.112 168.11L157.076 168.141L159.677 175.194L158.485 176.237L152.842 169.79L153.646 169.086L157.115 173.051C157.299 173.262 157.478 173.472 157.651 173.682C157.83 173.898 157.992 174.101 158.138 174.292C158.289 174.49 158.417 174.654 158.522 174.786L158.558 174.754L155.768 167.229L156.436 166.645Z" fill="white"/>
<path d="M146.684 174.18L142.626 176.721L143.129 177.525L146.272 175.557L147.896 178.15L144.936 180.004L145.433 180.797L148.393 178.943L149.813 181.212L146.67 183.179L147.173 183.983L151.231 181.442L146.684 174.18Z" fill="white"/>
<path d="M116.489 186.904L117.543 186.671L119.19 194.111L121.803 193.532L122.008 194.458L115.739 195.845L115.534 194.92L118.135 194.344L116.489 186.904Z" fill="white"/>
<path fill-rule="evenodd" clip-rule="evenodd" d="M100.174 191.428C100.042 191.982 99.9965 192.59 100.039 193.253C100.096 194.139 100.297 194.9 100.642 195.535C100.98 196.179 101.452 196.661 102.058 196.983C102.664 197.313 103.395 197.451 104.249 197.396C105.143 197.338 105.874 197.107 106.441 196.702C107 196.297 107.403 195.758 107.648 195.085C107.893 194.412 107.988 193.637 107.932 192.758C107.889 192.096 107.771 191.498 107.576 190.966C107.381 190.433 107.108 189.981 106.756 189.611C106.404 189.249 105.973 188.976 105.465 188.792C104.956 188.616 104.367 188.55 103.696 188.593C103.049 188.635 102.489 188.775 102.016 189.014C101.534 189.253 101.142 189.579 100.84 189.991C100.53 190.404 100.308 190.883 100.174 191.428ZM106.375 190.982C106.608 191.489 106.747 192.101 106.793 192.819C106.839 193.538 106.779 194.159 106.612 194.683C106.446 195.215 106.164 195.63 105.766 195.928C105.361 196.234 104.835 196.408 104.188 196.45C103.222 196.512 102.496 196.25 102.009 195.664C101.523 195.086 101.246 194.258 101.177 193.18C101.131 192.461 101.191 191.836 101.357 191.304C101.523 190.773 101.805 190.354 102.202 190.048C102.591 189.742 103.109 189.569 103.756 189.527C104.395 189.486 104.935 189.592 105.376 189.844C105.809 190.097 106.142 190.476 106.375 190.982Z" fill="white"/>
<path fill-rule="evenodd" clip-rule="evenodd" d="M69.3791 193.251C68.699 193.041 68.1498 192.799 67.7315 192.527C67.3056 192.253 67.0241 191.932 66.8872 191.562C66.7426 191.191 66.7472 190.757 66.9011 190.26C67.0005 189.939 67.1504 189.672 67.3507 189.457C67.5411 189.248 67.7808 189.096 68.0697 189.002C68.3487 188.912 68.6657 188.889 69.0209 188.932L69.0387 188.875C68.7114 188.715 68.4326 188.519 68.2025 188.289C67.9647 188.056 67.807 187.781 67.7294 187.464C67.6517 187.147 67.6792 186.774 67.8117 186.347C67.9656 185.85 68.2115 185.461 68.5497 185.181C68.8854 184.908 69.2957 184.746 69.7804 184.695C70.2552 184.649 70.7868 184.718 71.3752 184.9L74.2523 185.791L71.7175 193.976L69.3791 193.251ZM70.252 189.703C69.549 189.485 69.0332 189.447 68.7048 189.588C68.3739 189.737 68.1399 190.033 68.0026 190.476C67.863 190.927 67.924 191.297 68.1858 191.588C68.4376 191.884 68.9112 192.139 69.6066 192.354L70.9592 192.773L71.7651 190.171L70.252 189.703ZM72.0314 189.312L72.9509 186.343L71.3002 185.832C70.5743 185.607 70.0261 185.592 69.6558 185.787C69.2855 185.982 69.0293 186.309 68.8873 186.768C68.7974 187.058 68.7842 187.33 68.8478 187.584C68.9038 187.836 69.0631 188.066 69.3256 188.273C69.5782 188.485 69.9566 188.669 70.461 188.825L72.0314 189.312Z" fill="white"/>
<path fill-rule="evenodd" clip-rule="evenodd" d="M54.6101 187.082C54.9412 187.445 55.4276 187.782 56.0692 188.09L58.1995 189.115L61.9139 181.394L60.9407 180.926L59.406 184.116L57.8705 183.377L57.5343 179.287L56.3989 178.741L56.8537 183.221C56.5491 183.19 56.2433 183.198 55.9363 183.246C55.6186 183.297 55.3182 183.423 55.035 183.624C54.7518 183.826 54.5114 184.132 54.3137 184.542C54.0779 185.033 53.9829 185.489 54.0286 185.91C54.0744 186.332 54.2682 186.722 54.6101 187.082ZM57.6321 187.803L56.5291 187.273C56.1037 187.068 55.7766 186.853 55.5478 186.628C55.3189 186.402 55.1881 186.157 55.1555 185.893C55.1156 185.625 55.1772 185.322 55.3402 184.983C55.4963 184.659 55.6912 184.419 55.925 184.266C56.1516 184.108 56.426 184.036 56.7482 184.049C57.067 184.069 57.4355 184.18 57.8536 184.381L59.0107 184.938L57.6321 187.803Z" fill="white"/>
<path fill-rule="evenodd" clip-rule="evenodd" d="M41.7406 174.509C42.1198 173.964 42.5337 173.516 42.9823 173.166C43.4263 172.822 43.8981 172.585 44.3978 172.455C44.8909 172.32 45.4005 172.309 45.9264 172.422C46.4458 172.53 46.9714 172.769 47.5034 173.139C48.055 173.522 48.475 173.941 48.7634 174.395C49.0472 174.856 49.2141 175.337 49.264 175.84C49.3094 176.349 49.2425 176.873 49.0631 177.411C48.8838 177.949 48.6045 178.49 48.2253 179.035C47.7228 179.757 47.166 180.306 46.5549 180.68C45.9439 181.054 45.2936 181.225 44.604 181.194C43.9079 181.158 43.1921 180.884 42.4566 180.372C41.7539 179.883 41.2679 179.321 40.9987 178.685C40.7249 178.056 40.6561 177.385 40.7923 176.671C40.9174 175.959 41.2335 175.238 41.7406 174.509ZM47.2964 178.374C47.7076 177.783 47.9795 177.217 48.1123 176.676C48.2451 176.135 48.2207 175.631 48.0391 175.163C47.851 174.691 47.4942 174.273 46.9688 173.907C46.4369 173.537 45.9235 173.35 45.4287 173.347C44.9273 173.339 44.446 173.492 43.9849 173.805C43.5237 174.117 43.0876 174.569 42.6764 175.16C42.0596 176.047 41.7615 176.867 41.7821 177.622C41.798 178.384 42.2033 179.041 42.998 179.594C43.5299 179.964 44.0498 180.155 44.5578 180.167C45.0546 180.182 45.5336 180.033 45.9948 179.72C46.4513 179.414 46.8852 178.965 47.2964 178.374Z" fill="white"/>
<path fill-rule="evenodd" clip-rule="evenodd" d="M33.3618 164.977L34.4598 162.352L33.6565 161.577L30.0852 170.086L30.7849 170.761L39.1674 166.891L38.3814 166.133L35.8062 167.334L33.3618 164.977ZM31.6651 168.759C31.7414 168.599 31.7932 168.488 31.8203 168.425L32.9286 165.893L34.8807 167.775L32.3818 168.967C32.2921 169.013 32.1857 169.072 32.0625 169.142C31.9335 169.207 31.7991 169.283 31.6592 169.37C31.5081 169.458 31.3625 169.545 31.2227 169.633C31.2663 169.541 31.3347 169.413 31.4279 169.247C31.5097 169.081 31.5888 168.919 31.6651 168.759Z" fill="white"/>
<path fill-rule="evenodd" clip-rule="evenodd" d="M21.644 153.788C22.4083 153.208 23.1574 152.865 23.8911 152.759C24.6201 152.647 25.316 152.757 25.9788 153.087C26.6417 153.417 27.2588 153.958 27.8299 154.71L29.2747 156.611L22.4528 161.795L20.8555 159.693C20.3328 159.005 20.0076 158.312 19.88 157.616C19.7524 156.919 19.833 156.245 20.1217 155.593C20.404 154.947 20.9115 154.345 21.644 153.788ZM22.3624 154.674C21.7572 155.134 21.3379 155.614 21.1042 156.113C20.8657 156.605 20.8017 157.116 20.9122 157.645C21.0116 158.173 21.2693 158.71 21.6856 159.258L22.535 160.376L27.8856 156.31L27.1813 155.383C26.4795 154.46 25.7282 153.94 24.9275 153.825C24.1155 153.709 23.2605 153.992 22.3624 154.674Z" fill="white"/>
<path d="M17.7061 138.323L9.0407 140.199L9.55485 141.203L14.8027 139.999C15.0526 139.942 15.2972 139.885 15.5363 139.825C15.7755 139.766 16.0038 139.703 16.2214 139.636C16.4319 139.573 16.6317 139.507 16.8206 139.437C16.7105 139.52 16.5915 139.613 16.4637 139.714C16.3251 139.812 16.1866 139.919 16.0482 140.035C15.9098 140.151 15.7696 140.272 15.6277 140.398C15.4787 140.529 15.3351 140.661 15.1968 140.794L11.2778 144.567L11.7865 145.561L17.0791 144.549C17.2577 144.512 17.4398 144.472 17.6254 144.431C17.8111 144.39 17.9949 144.345 18.1769 144.297C18.3518 144.252 18.5213 144.206 18.6854 144.158C18.8459 144.103 19.0028 144.049 19.1562 143.998C19.0318 144.088 18.9039 144.181 18.7724 144.275C18.6409 144.37 18.5096 144.473 18.3783 144.585C18.2362 144.694 18.0959 144.806 17.9575 144.922C17.812 145.041 17.6683 145.164 17.5264 145.291L13.4766 148.861L13.9908 149.865L20.5832 143.941L20.0854 142.969L14.3804 144.071C14.1911 144.105 14.009 144.144 13.8341 144.189C13.6485 144.23 13.4753 144.269 13.3147 144.306C13.154 144.344 13.0202 144.381 12.9132 144.418C12.7955 144.451 12.7099 144.477 12.6564 144.495C12.7026 144.463 12.7736 144.408 12.8695 144.332C12.9546 144.253 13.0592 144.159 13.1834 144.05C13.3076 143.941 13.4371 143.826 13.5718 143.703C13.7066 143.58 13.8378 143.459 13.9655 143.339L18.2039 139.295L17.7061 138.323Z" fill="white"/>
<path fill-rule="evenodd" clip-rule="evenodd" d="M12.4799 124.343L10.2556 126.118L11.2672 129.36L14.1026 129.544L14.4279 130.586L5.21719 129.953L4.92766 129.025L12.1474 123.278L12.4799 124.343ZM7.24732 128.402C7.19337 128.444 7.09455 128.517 6.95086 128.62C6.80716 128.724 6.65965 128.829 6.50832 128.934C6.34697 129.035 6.22524 129.115 6.14313 129.174C6.30778 129.165 6.47744 129.158 6.65212 129.154C6.81677 129.144 6.97116 129.142 7.11528 129.147C7.25702 129.145 7.37848 129.145 7.47965 129.147L10.2435 129.303L9.43571 126.714L7.24732 128.402Z" fill="white"/>
<path d="M1.55289 113.779L6.06684 115.311L2.26262 118.174L2.4501 119.335L7.21912 115.672L10.4532 115.15L10.281 114.084L6.99956 114.614L1.36732 112.63L1.55289 113.779Z" fill="white"/>
</g>
</g>
</svg>
