<svg width="800" height="60" viewBox="0 0 800 60" fill="none" xmlns="http://www.w3.org/2000/svg">
<path d="M0 16.4638C0 16.4638 243.498 0 400 0C556.502 0 800 16.4638 800 16.4638V60C800 60 556.648 42.5774 400 42.5774C243.352 42.5774 0 60 0 60V16.4638Z" fill="#7D7D7D"/>
<path d="M363.12 25.76L361.76 26.68C362.067 27.2933 362.46 27.8733 362.94 28.42C363.433 28.9533 364 29.3867 364.64 29.72C365.293 30.04 366 30.2 366.76 30.2C367.32 30.2 367.853 30.1067 368.36 29.92C368.88 29.7333 369.34 29.4667 369.74 29.12C370.153 28.7733 370.473 28.3533 370.7 27.86C370.94 27.3667 371.06 26.8133 371.06 26.2C371.06 25.56 370.947 25.0133 370.72 24.56C370.493 24.0933 370.2 23.7 369.84 23.38C369.493 23.0467 369.113 22.7733 368.7 22.56C368.287 22.3467 367.893 22.1733 367.52 22.04C366.707 21.76 366.06 21.48 365.58 21.2C365.113 20.9067 364.78 20.6 364.58 20.28C364.38 19.9467 364.28 19.5867 364.28 19.2C364.28 18.7467 364.453 18.34 364.8 17.98C365.147 17.6067 365.7 17.42 366.46 17.42C367.007 17.42 367.467 17.5267 367.84 17.74C368.227 17.9533 368.553 18.2267 368.82 18.56C369.087 18.8933 369.307 19.2333 369.48 19.58L370.94 18.74C370.713 18.2467 370.4 17.78 370 17.34C369.6 16.8867 369.113 16.52 368.54 16.24C367.98 15.9467 367.32 15.8 366.56 15.8C365.773 15.8 365.073 15.96 364.46 16.28C363.847 16.5867 363.367 17.0133 363.02 17.56C362.673 18.1067 362.5 18.7267 362.5 19.42C362.5 20.06 362.62 20.6 362.86 21.04C363.113 21.48 363.433 21.8533 363.82 22.16C364.207 22.4533 364.613 22.7 365.04 22.9C365.467 23.0867 365.853 23.24 366.2 23.36C366.733 23.5467 367.233 23.76 367.7 24C368.18 24.2267 368.567 24.5267 368.86 24.9C369.153 25.2733 369.3 25.7733 369.3 26.4C369.3 27.04 369.073 27.5667 368.62 27.98C368.167 28.3933 367.567 28.6 366.82 28.6C366.26 28.6 365.76 28.48 365.32 28.24C364.88 28 364.48 27.6667 364.12 27.24C363.773 26.8133 363.44 26.32 363.12 25.76ZM375.157 23C375.157 21.9067 375.397 20.9533 375.877 20.14C376.37 19.3133 377.01 18.6667 377.797 18.2C378.584 17.7333 379.437 17.5 380.357 17.5C381.024 17.5 381.63 17.5867 382.177 17.76C382.737 17.9333 383.244 18.18 383.697 18.5C384.15 18.8067 384.537 19.1667 384.857 19.58V17.34C384.27 16.82 383.63 16.4333 382.937 16.18C382.244 15.9267 381.384 15.8 380.357 15.8C379.384 15.8 378.47 15.98 377.617 16.34C376.777 16.6867 376.037 17.1867 375.397 17.84C374.757 18.48 374.257 19.24 373.897 20.12C373.537 21 373.357 21.96 373.357 23C373.357 24.04 373.537 25 373.897 25.88C374.257 26.76 374.757 27.5267 375.397 28.18C376.037 28.82 376.777 29.32 377.617 29.68C378.47 30.0267 379.384 30.2 380.357 30.2C381.384 30.2 382.244 30.0733 382.937 29.82C383.63 29.5667 384.27 29.18 384.857 28.66V26.42C384.537 26.8333 384.15 27.2 383.697 27.52C383.244 27.8267 382.737 28.0667 382.177 28.24C381.63 28.4133 381.024 28.5 380.357 28.5C379.437 28.5 378.584 28.2667 377.797 27.8C377.01 27.3333 376.37 26.6867 375.877 25.86C375.397 25.0333 375.157 24.08 375.157 23ZM390.948 23.1L395.748 30H397.848L392.848 23.1H390.948ZM388.448 16V30H390.148V16H388.448ZM389.388 17.5H392.248C392.848 17.5 393.375 17.6067 393.828 17.82C394.295 18.0333 394.655 18.34 394.908 18.74C395.175 19.14 395.308 19.6267 395.308 20.2C395.308 20.7733 395.175 21.26 394.908 21.66C394.655 22.06 394.295 22.3667 393.828 22.58C393.375 22.7933 392.848 22.9 392.248 22.9H389.388V24.4H392.248C393.155 24.4 393.962 24.2333 394.668 23.9C395.388 23.5533 395.955 23.0667 396.368 22.44C396.795 21.8 397.008 21.0533 397.008 20.2C397.008 19.3333 396.795 18.5867 396.368 17.96C395.955 17.3333 395.388 16.8533 394.668 16.52C393.962 16.1733 393.155 16 392.248 16H389.388V17.5ZM401.18 30H408.24V28.4H401.18V30ZM401.18 17.6H408.24V16H401.18V17.6ZM401.18 23.2H407.84V21.6H401.18V23.2ZM400.24 16V30H401.94V16H400.24ZM412.776 30H419.836V28.4H412.776V30ZM412.776 17.6H419.836V16H412.776V17.6ZM412.776 23.2H419.436V21.6H412.776V23.2ZM411.836 16V30H413.536V16H411.836ZM434.032 16V26.42L423.432 15.3V30H425.132V19.58L435.732 30.7V16H434.032Z" fill="#191919"/>
</svg>

