<svg width="16" height="16" viewBox="0 0 16 16" fill="none" xmlns="http://www.w3.org/2000/svg">
<path d="M7.98438 0.0625C10.1406 0.0625 10.4062 0.078125 11.25 0.109375C12.0781 0.140625 12.6562 0.28125 13.1719 0.484375C13.7031 0.6875 14.1406 0.953125 14.5781 1.39062C15.0156 1.82812 15.2812 2.26562 15.4844 2.79688C15.6875 3.3125 15.8281 3.89062 15.8594 4.71875C15.8906 5.5625 15.9062 5.82812 15.9062 7.98438C15.9062 10.1406 15.8906 10.4062 15.8594 11.25C15.8281 12.0781 15.6875 12.6562 15.4844 13.1719C15.2812 13.7031 15.0156 14.1406 14.5781 14.5781C14.1406 15.0156 13.7031 15.2812 13.1719 15.4844C12.6562 15.6875 12.0781 15.8281 11.25 15.8594C10.4062 15.8906 10.1406 15.9062 7.98438 15.9062C5.82812 15.9062 5.5625 15.8906 4.71875 15.8594C3.89062 15.8281 3.3125 15.6875 2.79688 15.4844C2.26562 15.2812 1.82812 15.0156 1.39062 14.5781C0.953125 14.1406 0.6875 13.7031 0.484375 13.1719C0.28125 12.6562 0.140625 12.0781 0.109375 11.25C0.078125 10.4062 0.0625 10.1406 0.0625 7.98438C0.0625 5.82812 0.078125 5.5625 0.109375 4.71875C0.140625 3.89062 0.28125 3.3125 0.484375 2.79688C0.6875 2.26562 0.953125 1.82812 1.39062 1.39062C1.82812 0.953125 2.26562 0.6875 2.79688 0.484375C3.3125 0.28125 3.89062 0.140625 4.71875 0.109375C5.5625 0.078125 5.82812 0.0625 7.98438 0.0625ZM7.98438 1.09375C5.73438 1.09375 5.46875 1.10938 4.59375 1.14062C3.78125 1.17188 3.32812 1.32812 3.03125 1.4375C2.26562 1.75 1.75 2.26562 1.4375 3.03125C1.32812 3.32812 1.17188 3.78125 1.14062 4.59375C1.10938 5.46875 1.09375 5.73438 1.09375 7.98438C1.09375 10.2344 1.10938 10.5 1.14062 11.375C1.17188 12.1875 1.32812 12.6406 1.4375 12.9375C1.75 13.7031 2.26562 14.2188 3.03125 14.5312C3.32812 14.6406 3.78125 14.7969 4.59375 14.8281C5.46875 14.8594 5.73438 14.875 7.98438 14.875C10.2344 14.875 10.5 14.8594 11.375 14.8281C12.1875 14.7969 12.6406 14.6406 12.9375 14.5312C13.7031 14.2188 14.2188 13.7031 14.5312 12.9375C14.6406 12.6406 14.7969 12.1875 14.8281 11.375C14.8594 10.5 14.875 10.2344 14.875 7.98438C14.875 5.73438 14.8594 5.46875 14.8281 4.59375C14.7969 3.78125 14.6406 3.32812 14.5312 3.03125C14.2188 2.26562 13.7031 1.75 12.9375 1.4375C12.6406 1.32812 12.1875 1.17188 11.375 1.14062C10.5 1.10938 10.2344 1.09375 7.98438 1.09375ZM7.98438 11.1562C9.73438 11.1562 11.1562 9.73438 11.1562 7.98438C11.1562 6.23438 9.73438 4.8125 7.98438 4.8125C6.23438 4.8125 4.8125 6.23438 4.8125 7.98438C4.8125 9.73438 6.23438 11.1562 7.98438 11.1562ZM7.98438 3.92188C10.2344 3.92188 12.0469 5.73438 12.0469 7.98438C12.0469 10.2344 10.2344 12.0469 7.98438 12.0469C5.73438 12.0469 3.92188 10.2344 3.92188 7.98438C3.92188 5.73438 5.73438 3.92188 7.98438 3.92188ZM13.1719 3.76562C13.1719 4.29688 12.7344 4.70312 12.2031 4.70312C11.6719 4.70312 11.2656 4.29688 11.2656 3.76562C11.2656 3.23438 11.6719 2.79688 12.2031 2.79688C12.7344 2.79688 13.1719 3.23438 13.1719 3.76562Z" fill="black"/>
</svg>
