<svg width="13" height="13" viewBox="0 0 13 13" fill="none" xmlns="http://www.w3.org/2000/svg">
<path d="M6.42002 0C8.16746 0 8.38271 0.0126628 9.06654 0.0379883C9.73764 0.0633138 10.2061 0.177279 10.6241 0.341895C11.0546 0.50651 11.4091 0.721777 11.7637 1.07633C12.1182 1.43089 12.3335 1.78545 12.4982 2.21599C12.6628 2.63385 12.7767 3.10237 12.8021 3.7735C12.8274 4.45729 12.84 4.67255 12.84 6.42002C12.84 8.16746 12.8274 8.38271 12.8021 9.06654C12.7767 9.73764 12.6628 10.2061 12.4982 10.6241C12.3335 11.0546 12.1182 11.4091 11.7637 11.7637C11.4091 12.1182 11.0546 12.3335 10.6241 12.4982C10.2061 12.6628 9.73764 12.7767 9.06654 12.8021C8.38271 12.8274 8.16746 12.84 6.42002 12.84C4.67255 12.84 4.45729 12.8274 3.7735 12.8021C3.10237 12.7767 2.63385 12.6628 2.21599 12.4982C1.78545 12.3335 1.43089 12.1182 1.07633 11.7637C0.721777 11.4091 0.50651 11.0546 0.341895 10.6241C0.177279 10.2061 0.0633138 9.73764 0.0379883 9.06654C0.0126628 8.38271 0 8.16746 0 6.42002C0 4.67255 0.0126628 4.45729 0.0379883 3.7735C0.0633138 3.10237 0.177279 2.63385 0.341895 2.21599C0.50651 1.78545 0.721777 1.43089 1.07633 1.07633C1.43089 0.721777 1.78545 0.50651 2.21599 0.341895C2.63385 0.177279 3.10237 0.0633138 3.7735 0.0379883C4.45729 0.0126628 4.67255 0 6.42002 0ZM6.42002 0.835742C4.59659 0.835742 4.38132 0.848409 3.6722 0.873727C3.01374 0.89906 2.64651 1.02568 2.40592 1.11432C1.78545 1.36758 1.36758 1.78545 1.11432 2.40592C1.02568 2.64651 0.89906 3.01374 0.873727 3.6722C0.848409 4.38132 0.835742 4.59659 0.835742 6.42002C0.835742 8.24348 0.848409 8.45872 0.873727 9.16784C0.89906 9.8263 1.02568 10.1935 1.11432 10.4341C1.36758 11.0546 1.78545 11.4725 2.40592 11.7257C2.64651 11.8143 3.01374 11.941 3.6722 11.9663C4.38132 11.9917 4.59659 12.0043 6.42002 12.0043C8.24348 12.0043 8.45872 11.9917 9.16784 11.9663C9.8263 11.941 10.1935 11.8143 10.4341 11.7257C11.0546 11.4725 11.4725 11.0546 11.7257 10.4341C11.8143 10.1935 11.941 9.8263 11.9663 9.16784C11.9917 8.45872 12.0043 8.24348 12.0043 6.42002C12.0043 4.59659 11.9917 4.38132 11.9663 3.6722C11.941 3.01374 11.8143 2.64651 11.7257 2.40592C11.4725 1.78545 11.0546 1.36758 10.4341 1.11432C10.1935 1.02568 9.8263 0.89906 9.16784 0.873727C8.45872 0.848409 8.24348 0.835742 6.42002 0.835742ZM6.42002 8.99052C7.83825 8.99052 8.99052 7.83825 8.99052 6.42002C8.99052 5.00179 7.83825 3.84948 6.42002 3.84948C5.00179 3.84948 3.84948 5.00179 3.84948 6.42002C3.84948 7.83825 5.00179 8.99052 6.42002 8.99052ZM6.42002 3.12771C8.24348 3.12771 9.71236 4.59659 9.71236 6.42002C9.71236 8.24348 8.24348 9.71236 6.42002 9.71236C4.59659 9.71236 3.12771 8.24348 3.12771 6.42002C3.12771 4.59659 4.59659 3.12771 6.42002 3.12771ZM10.6241 3.00107C10.6241 3.43161 10.2695 3.76084 9.83895 3.76084C9.40845 3.76084 9.07918 3.43161 9.07918 3.00107C9.07918 2.57054 9.40845 2.21599 9.83895 2.21599C10.2695 2.21599 10.6241 2.57054 10.6241 3.00107Z" fill="black"/>
</svg>
