<svg width="20" height="24" viewBox="0 0 20 24" fill="none" xmlns="http://www.w3.org/2000/svg">
<path d="M19 8.6C18.8333 7.1 18.6667 6 18.1667 5.6C17.6667 5.1 13.3333 5 10 5C6.66666 5 2.33333 5.1 1.83333 5.6C1.33333 6 1.16666 7.1 0.999995 8.6C0.833328 10.1 0.833328 11 0.833328 12C0.833328 13 0.833328 13.9 0.999995 15.4C1.16666 16.9 1.33333 18 1.83333 18.4C2.33333 18.9 6.66666 19 10 19C13.3333 19 17.6667 18.9 18.1667 18.4C18.6667 18 18.8333 16.9 19 15.4C19.1667 13.9 19.1667 13 19.1667 12C19.1667 11 19.1667 10.1 19 8.6ZM8.33333 15.6V8.4L13.3333 12L8.33333 15.6Z" fill="black"/>
</svg>
