<svg width="15" height="12" viewBox="0 0 15 12" fill="none" xmlns="http://www.w3.org/2000/svg">
<path d="M14.8636 2.94545C14.7272 1.71818 14.5909 0.81818 14.1818 0.490908C13.7727 0.0818179 10.2272 0 7.49999 0C4.77272 0 1.22727 0.0818179 0.818182 0.490908C0.409092 0.81818 0.272726 1.71818 0.136364 2.94545C-1.21918e-08 4.17272 0 4.90908 0 5.72726C0 6.54544 -1.21918e-08 7.2818 0.136364 8.50907C0.272726 9.73634 0.409092 10.6363 0.818182 10.9636C1.22727 11.3727 4.77272 11.4545 7.49999 11.4545C10.2272 11.4545 13.7727 11.3727 14.1818 10.9636C14.5909 10.6363 14.7272 9.73634 14.8636 8.50907C15 7.2818 15 6.54544 15 5.72726C15 4.90908 15 4.17272 14.8636 2.94545ZM6.13635 8.67271V2.78181L10.2272 5.72726L6.13635 8.67271Z" fill="black"/>
</svg>

