<svg width="207" height="209" viewBox="0 0 207 209" fill="none" xmlns="http://www.w3.org/2000/svg">
<path d="M6.28286 89.9845L14.6444 92.9331L14.5583 94.0217L8.82821 95.2416C8.65695 95.2762 8.4817 95.3105 8.30246 95.3445C8.12323 95.3784 7.95228 95.4091 7.78962 95.4363C7.62697 95.4636 7.48855 95.4887 7.37438 95.5118C7.25286 95.5263 7.16387 95.5353 7.10741 95.5388C7.16261 95.5512 7.24907 95.5741 7.36681 95.6075C7.4772 95.6323 7.61056 95.6709 7.76691 95.7234C7.92326 95.7759 8.09125 95.8333 8.27089 95.8957C8.44319 95.9495 8.61885 96.0115 8.79786 96.0818L14.2327 98.1368L14.1466 99.2254L5.42644 100.811L5.51539 99.6862L10.8361 98.771C11.0234 98.7376 11.2102 98.7083 11.3968 98.6829C11.5754 98.6569 11.7537 98.6349 11.9317 98.6169C12.1023 98.5902 12.2683 98.5713 12.4297 98.56C12.5911 98.5487 12.7485 98.537 12.902 98.5251C12.7444 98.4886 12.5828 98.4517 12.4172 98.4145C12.2522 98.3694 12.0836 98.3199 11.9113 98.2662C11.731 98.2118 11.5511 98.1534 11.3714 98.0911C11.1918 98.0287 11.0161 97.9666 10.8445 97.9049L5.80781 95.9898L5.89581 94.8772L11.2116 93.7208C11.3994 93.6795 11.5909 93.6425 11.7861 93.6098C11.9733 93.5765 12.1562 93.5468 12.3348 93.5208C12.5134 93.4948 12.6874 93.4765 12.8568 93.4658C13.0188 93.4465 13.1686 93.4303 13.306 93.4171C13.1086 93.3774 12.9037 93.3291 12.6916 93.2721C12.4714 93.2146 12.2439 93.1485 12.0091 93.0737C11.7742 92.999 11.5357 92.9199 11.2936 92.8365L6.19391 91.109L6.28286 89.9845Z" fill="white"/>
<path d="M17.3696 78.8605L16.2125 83.5066L7.89849 81.4361L9.05553 76.79L9.97543 77.0191L9.07938 80.6172L11.6761 81.2639L12.5199 77.8754L13.4282 78.1015L12.5843 81.4901L15.5536 82.2295L16.4497 78.6314L17.3696 78.8605Z" fill="white"/>
<path d="M19.6237 71.9071L11.6692 68.7233L12.0705 67.7206L19.1337 70.5477L20.525 67.0718L21.4162 67.4285L19.6237 71.9071Z" fill="white"/>
<path d="M19.7018 53.8224C19.474 54.2174 19.3375 54.6143 19.2923 55.013C19.2401 55.4077 19.2818 55.7919 19.4172 56.1655C19.5458 56.5352 19.7632 56.8868 20.0695 57.2204C20.3688 57.55 20.7507 57.8487 21.215 58.1165C21.8249 58.4682 22.409 58.6803 22.9674 58.753C23.5297 58.8187 24.0401 58.7344 24.4985 58.5C24.9608 58.2587 25.3559 57.854 25.6836 57.2857C25.8714 56.96 26.0215 56.6356 26.1339 56.3125C26.2463 55.9895 26.3409 55.6654 26.4176 55.3402L27.2284 55.8078C27.1725 56.1449 27.0829 56.4765 26.9596 56.8025C26.8402 57.1215 26.6627 57.4855 26.4269 57.8944C25.9913 58.6498 25.4717 59.1905 24.8681 59.5166C24.2645 59.8427 23.6011 59.9681 22.878 59.8928C22.159 59.8106 21.4113 59.5457 20.6351 59.0981C20.0738 58.7743 19.6049 58.4024 19.2285 57.9822C18.8561 57.555 18.586 57.0945 18.4183 56.6007C18.2545 56.0999 18.2104 55.5758 18.286 55.0284C18.3547 54.4769 18.5549 53.9136 18.8866 53.3384C19.1064 52.9572 19.3563 52.6119 19.6363 52.3024C19.9164 51.9929 20.2057 51.7396 20.5041 51.5423L21.0784 52.3721C20.8425 52.5409 20.6011 52.7433 20.3541 52.9795C20.1111 53.2088 19.8936 53.4897 19.7018 53.8224Z" fill="white"/>
<path d="M32.9435 41.2668C33.4587 41.6856 33.8744 42.1318 34.1906 42.6053C34.5006 43.0737 34.7017 43.562 34.7939 44.0699C34.8912 44.5717 34.8642 45.0807 34.7127 45.5967C34.5663 46.1066 34.2888 46.613 33.88 47.1158C33.4562 47.6373 33.0071 48.0249 32.5329 48.2786C32.0524 48.5272 31.5597 48.6577 31.0549 48.67C30.5438 48.6773 30.0267 48.5714 29.5037 48.3525C28.9806 48.1335 28.4615 47.8146 27.9462 47.3958C27.2633 46.8407 26.7582 46.2446 26.4308 45.6073C26.1034 44.97 25.9811 44.3088 26.0639 43.6235C26.1518 42.932 26.4782 42.2386 27.0434 41.5433C27.5833 40.8791 28.1802 40.4364 28.8342 40.2153C29.4819 39.9892 30.1567 39.9707 30.8587 40.1599C31.5595 40.3377 32.2544 40.7067 32.9435 41.2668ZM28.6746 46.5187C29.2333 46.9729 29.7775 47.2863 30.3071 47.4591C30.8368 47.6319 31.3415 47.6452 31.8211 47.499C32.3058 47.3466 32.75 47.0221 33.1537 46.5254C33.5624 46.0226 33.7868 45.5246 33.8269 45.0314C33.872 44.5319 33.7559 44.0406 33.4785 43.5574C33.2012 43.0743 32.7831 42.6056 32.2244 42.1515C31.3864 41.4702 30.5901 41.1117 29.8358 41.0759C29.0752 41.035 28.3896 41.3901 27.779 42.1413C27.3703 42.6441 27.1409 43.1483 27.0907 43.654C27.0394 44.1483 27.1524 44.6371 27.4298 45.1203C27.7009 45.5984 28.1159 46.0646 28.6746 46.5187Z" fill="white"/>
<path d="M44.431 35.9708L37.389 32.1246L37.3527 32.1559C37.4693 32.2666 37.6117 32.4133 37.7797 32.5958C37.9538 32.7732 38.1406 32.9713 38.3399 33.1902C38.5341 33.4031 38.7305 33.6246 38.929 33.8548L42.3229 37.7892L41.5687 38.4398L35.9724 31.952L37.1809 30.9095L43.7652 34.5008L43.8015 34.4695L41.2517 27.3981L42.4511 26.3635L48.0474 32.8513L47.2387 33.5489L43.7978 29.5599C43.615 29.3479 43.4377 29.1363 43.2661 28.9251C43.0893 28.7078 42.9285 28.5031 42.7839 28.3109C42.634 28.1127 42.5072 27.9473 42.4036 27.8149L42.3672 27.8463L45.1034 35.3908L44.431 35.9708Z" fill="white"/>
<path d="M58.3127 25.993L54.2367 28.5051L49.7413 21.2111L53.8174 18.699L54.3148 19.506L51.1581 21.4515L52.5621 23.7296L55.5349 21.8974L56.026 22.6942L53.0532 24.5264L54.6587 27.1314L57.8154 25.1859L58.3127 25.993Z" fill="white"/>
<path d="M84.522 15.9968L83.4659 16.2227L81.8724 8.77115L79.2555 9.33078L79.0573 8.40374L85.3353 7.06115L85.5336 7.98818L82.9285 8.5453L84.522 15.9968Z" fill="white"/>
<path d="M101.017 9.76566C101.054 10.4286 101.005 11.0364 100.868 11.5891C100.731 12.1338 100.506 12.6113 100.193 13.0218C99.8874 13.4319 99.4932 13.7548 99.0098 13.9907C98.5345 14.2262 97.9733 14.3623 97.3263 14.3992C96.6554 14.4374 96.0665 14.3668 95.5594 14.1874C95.0519 14 94.6235 13.7239 94.2742 13.3592C93.9244 12.9865 93.6542 12.5331 93.4635 11.9991C93.2728 11.4651 93.1586 10.8666 93.1208 10.2037C93.0707 9.32515 93.1707 8.5502 93.4209 7.87887C93.6711 7.20755 94.0773 6.67156 94.6394 6.27093C95.2095 5.86983 95.9418 5.64379 96.8364 5.5928C97.691 5.54408 98.4203 5.68681 99.0243 6.02098C99.6278 6.34716 100.096 6.83329 100.43 7.47936C100.77 8.117 100.966 8.8791 101.017 9.76566ZM94.2596 10.1508C94.3006 10.8697 94.4357 11.483 94.665 11.9907C94.8942 12.4985 95.2245 12.8803 95.6558 13.1362C96.095 13.3916 96.6341 13.5011 97.2731 13.4647C97.92 13.4278 98.4392 13.258 98.8306 12.9552C99.23 12.652 99.5147 12.2351 99.6848 11.7046C99.8549 11.1741 99.9195 10.5494 99.8785 9.83054C99.817 8.75229 99.5453 7.9224 99.0635 7.34088C98.5811 6.75138 97.8568 6.48417 96.8903 6.53926C96.2434 6.57614 95.7162 6.74641 95.3088 7.05009C94.909 7.34532 94.624 7.75821 94.4539 8.28875C94.2834 8.8113 94.2186 9.432 94.2596 10.1508Z" fill="white"/>
<path d="M131.676 9.98601C132.354 10.2015 132.902 10.4467 133.318 10.7216C133.742 10.9989 134.021 11.3226 134.156 11.6926C134.297 12.065 134.29 12.499 134.132 12.9946C134.031 13.3149 133.879 13.5814 133.677 13.7943C133.485 14.002 133.244 14.1522 132.955 14.2449C132.675 14.3323 132.358 14.3533 132.003 14.3078L131.985 14.365C132.311 14.5273 132.588 14.7245 132.817 14.9565C133.053 15.191 133.209 15.4671 133.284 15.7848C133.36 16.1025 133.329 16.4748 133.194 16.9018C133.036 17.3974 132.788 17.7843 132.448 18.0624C132.11 18.3329 131.698 18.4918 131.213 18.5392C130.738 18.5814 130.207 18.5093 129.62 18.3229L126.749 17.4113L129.343 9.2451L131.676 9.98601ZM130.778 13.5283C131.479 13.751 131.994 13.793 132.324 13.6542C132.656 13.5078 132.892 13.2135 133.032 12.7712C133.175 12.3214 133.117 11.9503 132.857 11.658C132.607 11.3605 132.136 11.1015 131.442 10.8812L130.092 10.4526L129.268 13.0489L130.778 13.5283ZM128.995 13.9067L128.055 16.8689L129.702 17.3919C130.426 17.6219 130.974 17.6407 131.346 17.4481C131.717 17.2556 131.976 16.9306 132.121 16.4731C132.213 16.1834 132.228 15.9112 132.167 15.6565C132.112 15.4043 131.955 15.1738 131.694 14.965C131.443 14.751 131.066 14.564 130.562 14.4042L128.995 13.9067Z" fill="white"/>
<path d="M144.948 15.242C145.588 15.5552 146.072 15.8947 146.4 16.2606C146.74 16.6228 146.931 17.0148 146.973 17.4366C147.016 17.8584 146.918 18.3136 146.679 18.8022C146.478 19.2117 146.235 19.516 145.951 19.715C145.666 19.9141 145.365 20.0382 145.047 20.0873C144.739 20.1328 144.434 20.1388 144.129 20.1055L144.552 24.5887L143.421 24.0343L143.114 19.942L141.583 19.1924L140.026 22.3714L139.056 21.8963L142.825 14.2019L144.948 15.242ZM144.483 16.0561L143.384 15.5176L141.985 18.3734L143.138 18.9382C143.554 19.1424 143.922 19.2557 144.241 19.2781C144.563 19.2934 144.838 19.2232 145.065 19.0675C145.3 18.9153 145.497 18.6776 145.655 18.3543C145.821 18.0166 145.884 17.7138 145.846 17.4458C145.816 17.1813 145.687 16.9354 145.459 16.7083C145.232 16.4812 144.907 16.2638 144.483 16.0561Z" fill="white"/>
<path d="M159.18 28.925C158.797 29.4673 158.38 29.9122 157.929 30.2596C157.482 30.6005 157.009 30.8341 156.508 30.9605C156.014 31.0914 155.504 31.0988 154.979 30.9825C154.461 30.8708 153.937 30.6281 153.407 30.2543C152.858 29.8666 152.441 29.4447 152.156 28.9886C151.876 28.526 151.712 28.0433 151.666 27.5404C151.624 27.031 151.695 26.508 151.878 25.9713C152.061 25.4347 152.344 24.8952 152.727 24.3528C153.235 23.6341 153.796 23.0898 154.41 22.7202C155.023 22.3505 155.675 22.1839 156.364 22.2202C157.06 22.2612 157.774 22.5401 158.506 23.057C159.205 23.5509 159.687 24.1166 159.951 24.7541C160.221 25.3851 160.285 26.0571 160.143 26.7702C160.013 27.4814 159.692 28.1997 159.18 28.925ZM153.652 25.0203C153.236 25.6084 152.96 26.1725 152.824 26.7127C152.687 27.2528 152.708 27.7572 152.886 28.2259C153.071 28.6992 153.425 29.1205 153.947 29.4897C154.477 29.8636 154.989 30.0538 155.483 30.0605C155.985 30.0718 156.467 29.9228 156.931 29.6135C157.394 29.3041 157.833 28.8554 158.249 28.2673C158.872 27.3852 159.176 26.5666 159.161 25.8115C159.15 25.0499 158.749 24.3898 157.959 23.8314C157.429 23.4575 156.911 23.2626 156.403 23.2467C155.906 23.2289 155.426 23.3746 154.963 23.684C154.504 23.9868 154.067 24.4323 153.652 25.0203Z" fill="white"/>
<path d="M166.374 41.1341L167.49 38.5167L165.063 36.1419L162.479 37.3244L161.699 36.5608L170.108 32.7515L170.803 33.4312L167.171 41.9145L166.374 41.1341ZM169.056 35.0797C169.084 35.0171 169.137 34.9062 169.214 34.747C169.291 34.5877 169.372 34.4256 169.455 34.2607C169.549 34.0956 169.618 33.9675 169.663 33.8765C169.522 33.9629 169.376 34.0494 169.224 34.1359C169.084 34.2223 168.949 34.2973 168.819 34.361C168.696 34.4302 168.589 34.488 168.499 34.5342L165.991 35.7074L167.93 37.6039L169.056 35.0797Z" fill="white"/>
<path d="M179.128 49.7885C178.36 50.3639 177.608 50.7016 176.874 50.8018C176.144 50.9084 175.449 50.7942 174.788 50.4593C174.128 50.1243 173.515 49.579 172.949 48.8233L171.518 46.9117L178.376 41.7767L179.959 43.89C180.476 44.5817 180.797 45.2763 180.919 45.974C181.042 46.6717 180.956 47.3453 180.663 47.9946C180.376 48.6392 179.864 49.2371 179.128 49.7885ZM178.416 48.8975C179.024 48.442 179.447 47.9656 179.684 47.4682C179.926 46.9772 179.994 46.4668 179.887 45.9372C179.792 45.4091 179.538 44.8697 179.125 44.3189L178.284 43.195L172.905 47.2225L173.602 48.1543C174.297 49.0828 175.045 49.6075 175.845 49.7281C176.656 49.8504 177.513 49.5736 178.416 48.8975Z" fill="white"/>
<path d="M191.634 63.4676L182.955 65.2817L182.465 64.3062L186.732 60.2921C186.86 60.1737 186.992 60.0535 187.128 59.9316C187.264 59.8096 187.394 59.6948 187.519 59.5871C187.644 59.4795 187.749 59.3862 187.835 59.3073C187.931 59.2319 188.003 59.1781 188.049 59.1457C187.995 59.1638 187.91 59.189 187.792 59.2215C187.684 59.2576 187.55 59.2937 187.389 59.3299C187.229 59.366 187.055 59.404 186.869 59.4438C186.694 59.4872 186.512 59.5252 186.322 59.5579L180.609 60.6186L180.118 59.6431L186.753 53.7663L187.26 54.7739L183.185 58.3153C183.042 58.4409 182.897 58.5629 182.751 58.6813C182.612 58.7962 182.471 58.9074 182.328 59.0151C182.196 59.1264 182.064 59.2286 181.932 59.322C181.799 59.4153 181.671 59.5069 181.546 59.5967C181.7 59.5462 181.857 59.4939 182.018 59.4398C182.182 59.3929 182.352 59.3478 182.527 59.3044C182.71 59.2574 182.894 59.2141 183.08 59.1742C183.266 59.1344 183.448 59.0964 183.627 59.0602L188.927 58.0863L189.428 59.0833L185.482 62.8283C185.343 62.961 185.199 63.0919 185.049 63.2211C184.906 63.3467 184.765 63.4669 184.626 63.5817C184.486 63.6965 184.347 63.8024 184.208 63.8994C184.079 63.9999 183.96 64.0914 183.849 64.174C184.038 64.1055 184.238 64.0406 184.449 63.9793C184.667 63.9143 184.896 63.8529 185.136 63.7951C185.375 63.7373 185.62 63.6812 185.871 63.6269L191.127 62.46L191.634 63.4676Z" fill="white"/>
<path d="M188.082 79.2983L190.319 77.5391L189.33 74.2901L186.496 74.0861L186.178 73.0414L195.384 73.7403L195.667 74.6703L188.407 80.366L188.082 79.2983ZM193.343 75.2769C193.397 75.2353 193.497 75.1633 193.641 75.0608C193.786 74.9584 193.934 74.8547 194.086 74.7499C194.248 74.6505 194.37 74.5714 194.453 74.5129C194.288 74.5212 194.118 74.5268 193.944 74.5298C193.779 74.5381 193.625 74.5391 193.48 74.5327C193.339 74.534 193.217 74.5334 193.116 74.5307L190.353 74.3552L191.143 76.9497L193.343 75.2769Z" fill="white"/>
<path d="M194.43 88.3758L198.933 89.94L199.11 91.0904L193.492 89.0668L190.207 89.5733L190.043 88.5059L193.28 88.0067L198.076 84.3777L198.255 85.54L194.43 88.3758Z" fill="white"/>
<path d="M199.198 117.36L190.816 114.471L190.894 113.382L196.615 112.121C196.786 112.085 196.961 112.05 197.14 112.014C197.319 111.979 197.49 111.947 197.652 111.919C197.815 111.891 197.953 111.864 198.067 111.84C198.188 111.825 198.277 111.816 198.334 111.812C198.278 111.8 198.192 111.777 198.074 111.745C197.963 111.721 197.83 111.683 197.673 111.632C197.516 111.58 197.348 111.524 197.168 111.463C196.995 111.41 196.819 111.35 196.639 111.281L191.19 109.264L191.268 108.175L199.977 106.528L199.896 107.653L194.582 108.606C194.395 108.641 194.208 108.672 194.022 108.698C193.844 108.725 193.665 108.749 193.488 108.768C193.317 108.796 193.151 108.816 192.99 108.828C192.829 108.841 192.671 108.854 192.518 108.867C192.676 108.902 192.838 108.938 193.004 108.974C193.169 109.018 193.338 109.066 193.511 109.119C193.691 109.172 193.872 109.229 194.052 109.29C194.232 109.351 194.408 109.412 194.58 109.472L199.63 111.351L199.55 112.465L194.243 113.659C194.055 113.701 193.864 113.74 193.669 113.774C193.482 113.809 193.299 113.84 193.121 113.867C192.942 113.894 192.769 113.914 192.599 113.926C192.437 113.946 192.288 113.963 192.15 113.978C192.348 114.016 192.553 114.063 192.766 114.118C192.986 114.174 193.214 114.239 193.45 114.312C193.685 114.385 193.924 114.462 194.167 114.544L199.279 116.235L199.198 117.36Z" fill="white"/>
<path d="M188.191 128.563L189.315 123.909L197.643 125.92L196.519 130.574L195.598 130.351L196.468 126.747L193.867 126.119L193.047 129.513L192.138 129.294L192.957 125.899L189.983 125.181L189.112 128.785L188.191 128.563Z" fill="white"/>
<path d="M185.986 135.532L193.963 138.659L193.569 139.665L186.486 136.888L185.12 140.374L184.226 140.023L185.986 135.532Z" fill="white"/>
<path d="M186.037 153.617C186.262 153.22 186.396 152.822 186.438 152.423C186.488 152.028 186.443 151.644 186.305 151.272C186.174 150.903 185.954 150.553 185.646 150.222C185.344 149.894 184.96 149.598 184.494 149.334C183.881 148.986 183.296 148.778 182.737 148.71C182.174 148.648 181.664 148.736 181.208 148.974C180.747 149.218 180.355 149.626 180.031 150.196C179.846 150.523 179.698 150.849 179.588 151.173C179.478 151.496 179.385 151.821 179.311 152.147L178.497 151.685C178.55 151.348 178.638 151.015 178.759 150.689C178.876 150.369 179.051 150.003 179.283 149.593C179.714 148.834 180.229 148.29 180.831 147.96C181.432 147.629 182.094 147.499 182.818 147.569C183.538 147.646 184.287 147.906 185.066 148.348C185.63 148.668 186.102 149.036 186.481 149.454C186.856 149.878 187.13 150.337 187.301 150.829C187.468 151.329 187.516 151.853 187.445 152.401C187.38 152.953 187.184 153.517 186.856 154.095C186.639 154.478 186.392 154.825 186.114 155.136C185.836 155.448 185.548 155.703 185.251 155.903L184.671 155.077C184.906 154.906 185.146 154.702 185.391 154.464C185.633 154.233 185.848 153.951 186.037 153.617Z" fill="white"/>
<path d="M172.886 166.267C172.367 165.852 171.948 165.408 171.629 164.937C171.316 164.471 171.111 163.984 171.015 163.477C170.914 162.976 170.938 162.467 171.085 161.95C171.228 161.439 171.502 160.93 171.907 160.425C172.327 159.9 172.774 159.509 173.246 159.252C173.725 159 174.217 158.866 174.721 158.85C175.232 158.839 175.75 158.941 176.275 159.157C176.799 159.372 177.321 159.687 177.839 160.102C178.526 160.652 179.035 161.245 179.367 161.88C179.699 162.515 179.826 163.175 179.748 163.861C179.665 164.553 179.344 165.249 178.784 165.948C178.248 166.616 177.655 167.063 177.002 167.289C176.356 167.52 175.682 167.543 174.978 167.359C174.276 167.186 173.579 166.822 172.886 166.267ZM177.117 160.984C176.555 160.534 176.009 160.225 175.478 160.056C174.947 159.887 174.442 159.877 173.963 160.027C173.48 160.183 173.038 160.51 172.638 161.01C172.233 161.515 172.012 162.015 171.975 162.509C171.934 163.008 172.053 163.499 172.334 163.98C172.615 164.461 173.036 164.927 173.598 165.377C174.441 166.052 175.24 166.405 175.995 166.435C176.755 166.471 177.438 166.111 178.044 165.355C178.449 164.85 178.675 164.344 178.721 163.838C178.769 163.343 178.652 162.855 178.372 162.374C178.097 161.898 177.679 161.435 177.117 160.984Z" fill="white"/>
<path d="M161.436 171.645L168.505 175.44L168.541 175.409C168.424 175.299 168.281 175.153 168.111 174.972C167.936 174.796 167.748 174.599 167.547 174.382C167.351 174.17 167.153 173.95 166.953 173.721L163.531 169.811L164.281 169.155L169.923 175.603L168.722 176.654L162.112 173.11L162.076 173.141L164.677 180.194L163.485 181.237L157.842 174.79L158.646 174.086L162.115 178.051C162.299 178.262 162.478 178.472 162.651 178.682C162.83 178.898 162.992 179.101 163.138 179.292C163.289 179.49 163.417 179.654 163.522 179.786L163.558 179.754L160.768 172.229L161.436 171.645Z" fill="white"/>
<path d="M147.626 181.721L151.684 179.18L156.231 186.442L152.173 188.983L151.67 188.18L154.813 186.212L153.393 183.944L150.433 185.797L149.936 185.004L152.896 183.15L151.272 180.557L148.129 182.525L147.626 181.721Z" fill="white"/>
<path d="M121.489 191.904L122.543 191.671L124.19 199.111L126.803 198.533L127.008 199.458L120.739 200.845L120.534 199.92L123.135 199.344L121.489 191.904Z" fill="white"/>
<path d="M105.039 198.253C104.997 197.59 105.042 196.982 105.175 196.429C105.308 195.883 105.53 195.404 105.84 194.991C106.142 194.579 106.534 194.253 107.016 194.014C107.489 193.775 108.05 193.635 108.696 193.593C109.367 193.55 109.956 193.617 110.465 193.792C110.973 193.976 111.404 194.249 111.756 194.611C112.108 194.982 112.382 195.433 112.576 195.966C112.771 196.498 112.889 197.096 112.932 197.759C112.988 198.637 112.893 199.412 112.648 200.085C112.403 200.759 112 201.297 111.441 201.702C110.874 202.107 110.143 202.339 109.249 202.396C108.395 202.451 107.664 202.313 107.058 201.983C106.452 201.661 105.98 201.179 105.642 200.535C105.297 199.9 105.096 199.139 105.039 198.253ZM111.793 197.82C111.747 197.101 111.608 196.489 111.375 195.983C111.142 195.476 110.809 195.097 110.376 194.844C109.935 194.592 109.395 194.486 108.756 194.527C108.109 194.569 107.591 194.742 107.202 195.048C106.805 195.354 106.523 195.773 106.357 196.305C106.191 196.836 106.131 197.461 106.177 198.18C106.246 199.258 106.523 200.086 107.009 200.664C107.496 201.25 108.222 201.512 109.188 201.45C109.835 201.408 110.361 201.234 110.766 200.928C111.164 200.63 111.446 200.215 111.612 199.683C111.779 199.159 111.839 198.538 111.793 197.82Z" fill="white"/>
<path d="M74.3792 198.251C73.699 198.041 73.1498 197.799 72.7316 197.528C72.3056 197.253 72.0242 196.932 71.8872 196.563C71.7427 196.191 71.7473 195.757 71.9011 195.26C72.0005 194.939 72.1504 194.672 72.3508 194.457C72.5412 194.248 72.7808 194.096 73.0698 194.002C73.3487 193.912 73.6658 193.889 74.021 193.932L74.0387 193.875C73.7114 193.715 73.4327 193.52 73.2026 193.289C72.9648 193.056 72.8071 192.781 72.7294 192.464C72.6518 192.147 72.6792 191.774 72.8118 191.347C72.9656 190.85 73.2116 190.461 73.5497 190.181C73.8855 189.908 74.2957 189.746 74.7805 189.695C75.2552 189.649 75.7868 189.718 76.3752 189.9L79.2524 190.791L76.7176 198.976L74.3792 198.251ZM75.2521 194.703C74.549 194.485 74.0333 194.447 73.7048 194.588C73.374 194.737 73.1399 195.033 73.0027 195.476C72.863 195.927 72.9241 196.297 73.1859 196.588C73.4377 196.884 73.9113 197.139 74.6067 197.355L75.9593 197.773L76.7652 195.171L75.2521 194.703ZM77.0314 194.312L77.9509 191.343L76.3003 190.832C75.5743 190.607 75.0262 190.592 74.6558 190.787C74.2855 190.982 74.0294 191.309 73.8874 191.768C73.7974 192.058 73.7843 192.33 73.8479 192.584C73.9039 192.836 74.0632 193.066 74.3257 193.273C74.5782 193.485 74.9567 193.669 75.461 193.825L77.0314 194.312Z" fill="white"/>
<path d="M61.0692 193.09C60.4276 192.782 59.9412 192.445 59.61 192.082C59.2682 191.722 59.0744 191.332 59.0286 190.91C58.9828 190.489 59.0778 190.033 59.3136 189.542C59.5113 189.131 59.7518 188.825 60.0349 188.624C60.3181 188.423 60.6185 188.297 60.9362 188.246C61.2432 188.198 61.549 188.19 61.8536 188.221L61.3988 183.741L62.5343 184.287L62.8704 188.377L64.406 189.116L65.9406 185.926L66.9138 186.394L63.1995 194.115L61.0692 193.09ZM61.529 192.273L62.632 192.803L64.0106 189.938L62.8535 189.381C62.4354 189.18 62.0669 189.069 61.7482 189.049C61.426 189.036 61.1515 189.108 60.9249 189.266C60.6911 189.419 60.4962 189.659 60.3401 189.983C60.1771 190.322 60.1156 190.625 60.1554 190.893C60.1881 191.157 60.3188 191.402 60.5477 191.628C60.7766 191.853 61.1037 192.068 61.529 192.273Z" fill="white"/>
<path d="M46.7406 179.509C47.1198 178.964 47.5336 178.516 47.9822 178.166C48.4262 177.821 48.8981 177.585 49.3978 177.455C49.8909 177.32 50.4004 177.309 50.9264 177.422C51.4457 177.53 51.9714 177.769 52.5033 178.139C53.055 178.522 53.475 178.941 53.7634 179.395C54.0472 179.856 54.2141 180.337 54.264 180.84C54.3094 181.349 54.2424 181.873 54.0631 182.411C53.8838 182.948 53.6045 183.49 53.2253 184.035C52.7228 184.757 52.166 185.306 51.5549 185.68C50.9439 186.054 50.2936 186.225 49.604 186.194C48.9079 186.158 48.1921 185.884 47.4565 185.372C46.7538 184.883 46.2679 184.321 45.9986 183.685C45.7248 183.056 45.656 182.385 45.7923 181.671C45.9173 180.959 46.2334 180.238 46.7406 179.509ZM52.2964 183.374C52.7075 182.783 52.9795 182.217 53.1123 181.676C53.2451 181.135 53.2207 180.631 53.0391 180.163C52.8509 179.691 52.4942 179.273 51.9688 178.907C51.4369 178.537 50.9235 178.35 50.4287 178.347C49.9273 178.339 49.446 178.492 48.9849 178.805C48.5237 179.117 48.0876 179.569 47.6764 180.16C47.0596 181.047 46.7615 181.867 46.782 182.622C46.798 183.384 47.2033 184.041 47.9979 184.594C48.5299 184.964 49.0498 185.155 49.5578 185.167C50.0546 185.182 50.5336 185.033 50.9947 184.72C51.4513 184.414 51.8852 183.965 52.2964 183.374Z" fill="white"/>
<path d="M39.46 167.352L38.3619 169.977L40.8064 172.334L43.3815 171.134L44.1675 171.892L35.785 175.761L35.0853 175.086L38.6566 166.577L39.46 167.352ZM36.8204 173.425C36.7933 173.488 36.7416 173.599 36.6652 173.759C36.5889 173.919 36.5098 174.081 36.428 174.247C36.3348 174.413 36.2664 174.541 36.2228 174.633C36.3627 174.545 36.5082 174.458 36.6594 174.37C36.7992 174.283 36.9336 174.207 37.0626 174.142C37.1858 174.072 37.2922 174.013 37.3819 173.967L39.8808 172.776L37.9287 170.893L36.8204 173.425Z" fill="white"/>
<path d="M26.644 158.789C27.4083 158.208 28.1574 157.865 28.8911 157.759C29.6201 157.647 30.316 157.757 30.9788 158.087C31.6417 158.417 32.2588 158.958 32.8299 159.71L34.2747 161.611L27.4528 166.795L25.8555 164.693C25.3328 164.005 25.0076 163.313 24.88 162.616C24.7524 161.919 24.833 161.245 25.1217 160.593C25.404 159.947 25.9115 159.345 26.644 158.789ZM27.3624 159.674C26.7573 160.134 26.3379 160.614 26.1042 161.113C25.8657 161.605 25.8017 162.116 25.9122 162.645C26.0116 163.173 26.2693 163.71 26.6856 164.258L27.5351 165.376L32.8856 161.31L32.1813 160.383C31.4795 159.46 30.7282 158.94 29.9275 158.825C29.1155 158.709 28.2605 158.992 27.3624 159.674Z" fill="white"/>
<path d="M14.0407 145.199L22.7061 143.323L23.2038 144.295L18.9654 148.339C18.8378 148.459 18.7066 148.58 18.5718 148.703C18.437 148.826 18.3075 148.941 18.1834 149.05C18.0592 149.158 17.9545 149.252 17.8694 149.332C17.7736 149.408 17.7025 149.462 17.6563 149.495C17.7098 149.477 17.7954 149.451 17.9132 149.417C18.0202 149.381 18.154 149.344 18.3146 149.306C18.4753 149.269 18.6484 149.23 18.8341 149.189C19.009 149.144 19.191 149.105 19.3803 149.071L25.0854 147.969L25.5831 148.941L18.9907 154.865L18.4766 153.861L22.5263 150.291C22.6682 150.164 22.8119 150.041 22.9575 149.922C23.0959 149.806 23.2361 149.694 23.3782 149.585C23.5095 149.473 23.6409 149.369 23.7724 149.275C23.9038 149.181 24.0318 149.088 24.1561 148.998C24.0028 149.049 23.8458 149.103 23.6854 149.158C23.5213 149.206 23.3518 149.252 23.1769 149.297C22.9949 149.345 22.811 149.39 22.6254 149.431C22.4397 149.472 22.2576 149.512 22.0791 149.549L16.7864 150.561L16.2777 149.567L20.1968 145.794C20.335 145.661 20.4786 145.529 20.6277 145.398C20.7695 145.272 20.9097 145.151 21.0481 145.035C21.1866 144.919 21.3251 144.812 21.4637 144.714C21.5915 144.613 21.7104 144.52 21.8206 144.437C21.6316 144.507 21.4319 144.573 21.2214 144.636C21.0038 144.702 20.7754 144.765 20.5363 144.825C20.2971 144.885 20.0526 144.942 19.8027 144.998L14.5548 146.203L14.0407 145.199Z" fill="white"/>
<path d="M17.48 129.343L15.2557 131.118L16.2673 134.36L19.1027 134.544L19.428 135.586L10.2173 134.953L9.92777 134.025L17.1475 128.278L17.48 129.343ZM12.2474 133.402C12.1935 133.444 12.0947 133.517 11.951 133.62C11.8073 133.724 11.6598 133.829 11.5084 133.934C11.3471 134.035 11.2253 134.115 11.1432 134.174C11.3079 134.165 11.4775 134.158 11.6522 134.154C11.8169 134.144 11.9713 134.142 12.1154 134.147C12.2571 134.145 12.3786 134.145 12.4798 134.147L15.2436 134.303L14.4358 131.714L12.2474 133.402Z" fill="white"/>
<path d="M11.0669 120.311L6.55296 118.779L6.3674 117.63L11.9996 119.614L15.2811 119.084L15.4533 120.15L12.2192 120.672L7.45018 124.335L7.2627 123.174L11.0669 120.311Z" fill="white"/>
</svg>
